G04 #@! TF.GenerationSoftware,KiCad,Pcbnew,(5.1.7)-1*
G04 #@! TF.CreationDate,2020-12-20T16:40:32+01:00*
G04 #@! TF.ProjectId,uart_flash_pcb,75617274-5f66-46c6-9173-685f7063622e,rev?*
G04 #@! TF.SameCoordinates,Original*
G04 #@! TF.FileFunction,Legend,Top*
G04 #@! TF.FilePolarity,Positive*
%FSLAX46Y46*%
G04 Gerber Fmt 4.6, Leading zero omitted, Abs format (unit mm)*
G04 Created by KiCad (PCBNEW (5.1.7)-1) date 2020-12-20 16:40:32*
%MOMM*%
%LPD*%
G01*
G04 APERTURE LIST*
%ADD10C,0.200000*%
%ADD11C,0.100000*%
%ADD12C,0.120000*%
G04 APERTURE END LIST*
D10*
X115702380Y-74702380D02*
X115369047Y-74226190D01*
X115130952Y-74702380D02*
X115130952Y-73702380D01*
X115511904Y-73702380D01*
X115607142Y-73750000D01*
X115654761Y-73797619D01*
X115702380Y-73892857D01*
X115702380Y-74035714D01*
X115654761Y-74130952D01*
X115607142Y-74178571D01*
X115511904Y-74226190D01*
X115130952Y-74226190D01*
X116083333Y-74654761D02*
X116226190Y-74702380D01*
X116464285Y-74702380D01*
X116559523Y-74654761D01*
X116607142Y-74607142D01*
X116654761Y-74511904D01*
X116654761Y-74416666D01*
X116607142Y-74321428D01*
X116559523Y-74273809D01*
X116464285Y-74226190D01*
X116273809Y-74178571D01*
X116178571Y-74130952D01*
X116130952Y-74083333D01*
X116083333Y-73988095D01*
X116083333Y-73892857D01*
X116130952Y-73797619D01*
X116178571Y-73750000D01*
X116273809Y-73702380D01*
X116511904Y-73702380D01*
X116654761Y-73750000D01*
X116940476Y-73702380D02*
X117511904Y-73702380D01*
X117226190Y-74702380D02*
X117226190Y-73702380D01*
X92059523Y-79462380D02*
X91583333Y-79462380D01*
X91535714Y-79938571D01*
X91583333Y-79890952D01*
X91678571Y-79843333D01*
X91916666Y-79843333D01*
X92011904Y-79890952D01*
X92059523Y-79938571D01*
X92107142Y-80033809D01*
X92107142Y-80271904D01*
X92059523Y-80367142D01*
X92011904Y-80414761D01*
X91916666Y-80462380D01*
X91678571Y-80462380D01*
X91583333Y-80414761D01*
X91535714Y-80367142D01*
X92392857Y-79462380D02*
X92726190Y-80462380D01*
X93059523Y-79462380D01*
X91261904Y-82002380D02*
X91880952Y-82002380D01*
X91547619Y-82383333D01*
X91690476Y-82383333D01*
X91785714Y-82430952D01*
X91833333Y-82478571D01*
X91880952Y-82573809D01*
X91880952Y-82811904D01*
X91833333Y-82907142D01*
X91785714Y-82954761D01*
X91690476Y-83002380D01*
X91404761Y-83002380D01*
X91309523Y-82954761D01*
X91261904Y-82907142D01*
X92166666Y-82002380D02*
X92500000Y-83002380D01*
X92833333Y-82002380D01*
X93071428Y-82002380D02*
X93690476Y-82002380D01*
X93357142Y-82383333D01*
X93500000Y-82383333D01*
X93595238Y-82430952D01*
X93642857Y-82478571D01*
X93690476Y-82573809D01*
X93690476Y-82811904D01*
X93642857Y-82907142D01*
X93595238Y-82954761D01*
X93500000Y-83002380D01*
X93214285Y-83002380D01*
X93119047Y-82954761D01*
X93071428Y-82907142D01*
D11*
G36*
X100965000Y-59055000D02*
G01*
X99695000Y-59055000D01*
X100330000Y-57785000D01*
X100965000Y-59055000D01*
G37*
X100965000Y-59055000D02*
X99695000Y-59055000D01*
X100330000Y-57785000D01*
X100965000Y-59055000D01*
D10*
X100330000Y-62865000D02*
X100330000Y-58420000D01*
X115311514Y-82716666D02*
X115787704Y-82716666D01*
X115216276Y-83002380D02*
X115549609Y-82002380D01*
X115882942Y-83002380D01*
X116216276Y-82621428D02*
X116978180Y-82621428D01*
X118025800Y-83002380D02*
X117692466Y-82526190D01*
X117454371Y-83002380D02*
X117454371Y-82002380D01*
X117835323Y-82002380D01*
X117930561Y-82050000D01*
X117978180Y-82097619D01*
X118025800Y-82192857D01*
X118025800Y-82335714D01*
X117978180Y-82430952D01*
X117930561Y-82478571D01*
X117835323Y-82526190D01*
X117454371Y-82526190D01*
X118406752Y-82954761D02*
X118549609Y-83002380D01*
X118787704Y-83002380D01*
X118882942Y-82954761D01*
X118930561Y-82907142D01*
X118978180Y-82811904D01*
X118978180Y-82716666D01*
X118930561Y-82621428D01*
X118882942Y-82573809D01*
X118787704Y-82526190D01*
X118597228Y-82478571D01*
X118501990Y-82430952D01*
X118454371Y-82383333D01*
X118406752Y-82288095D01*
X118406752Y-82192857D01*
X118454371Y-82097619D01*
X118501990Y-82050000D01*
X118597228Y-82002380D01*
X118835323Y-82002380D01*
X118978180Y-82050000D01*
X119263895Y-82002380D02*
X119835323Y-82002380D01*
X119549609Y-83002380D02*
X119549609Y-82002380D01*
X114668657Y-85256666D02*
X115144847Y-85256666D01*
X114573419Y-85542380D02*
X114906752Y-84542380D01*
X115240085Y-85542380D01*
X115573419Y-85161428D02*
X116335323Y-85161428D01*
X117144847Y-85018571D02*
X116811514Y-85018571D01*
X116811514Y-85542380D02*
X116811514Y-84542380D01*
X117287704Y-84542380D01*
X117811514Y-85542380D02*
X117716276Y-85494761D01*
X117668657Y-85399523D01*
X117668657Y-84542380D01*
X118621038Y-85542380D02*
X118621038Y-85018571D01*
X118573419Y-84923333D01*
X118478180Y-84875714D01*
X118287704Y-84875714D01*
X118192466Y-84923333D01*
X118621038Y-85494761D02*
X118525800Y-85542380D01*
X118287704Y-85542380D01*
X118192466Y-85494761D01*
X118144847Y-85399523D01*
X118144847Y-85304285D01*
X118192466Y-85209047D01*
X118287704Y-85161428D01*
X118525800Y-85161428D01*
X118621038Y-85113809D01*
X119049609Y-85494761D02*
X119144847Y-85542380D01*
X119335323Y-85542380D01*
X119430561Y-85494761D01*
X119478180Y-85399523D01*
X119478180Y-85351904D01*
X119430561Y-85256666D01*
X119335323Y-85209047D01*
X119192466Y-85209047D01*
X119097228Y-85161428D01*
X119049609Y-85066190D01*
X119049609Y-85018571D01*
X119097228Y-84923333D01*
X119192466Y-84875714D01*
X119335323Y-84875714D01*
X119430561Y-84923333D01*
X119906752Y-85542380D02*
X119906752Y-84542380D01*
X120335323Y-85542380D02*
X120335323Y-85018571D01*
X120287704Y-84923333D01*
X120192466Y-84875714D01*
X120049609Y-84875714D01*
X119954371Y-84923333D01*
X119906752Y-84970952D01*
X116681428Y-87558571D02*
X116348095Y-87558571D01*
X116348095Y-88082380D02*
X116348095Y-87082380D01*
X116824285Y-87082380D01*
X117348095Y-88082380D02*
X117252857Y-88034761D01*
X117205238Y-87939523D01*
X117205238Y-87082380D01*
X118157619Y-88082380D02*
X118157619Y-87558571D01*
X118110000Y-87463333D01*
X118014761Y-87415714D01*
X117824285Y-87415714D01*
X117729047Y-87463333D01*
X118157619Y-88034761D02*
X118062380Y-88082380D01*
X117824285Y-88082380D01*
X117729047Y-88034761D01*
X117681428Y-87939523D01*
X117681428Y-87844285D01*
X117729047Y-87749047D01*
X117824285Y-87701428D01*
X118062380Y-87701428D01*
X118157619Y-87653809D01*
X118586190Y-88034761D02*
X118681428Y-88082380D01*
X118871904Y-88082380D01*
X118967142Y-88034761D01*
X119014761Y-87939523D01*
X119014761Y-87891904D01*
X118967142Y-87796666D01*
X118871904Y-87749047D01*
X118729047Y-87749047D01*
X118633809Y-87701428D01*
X118586190Y-87606190D01*
X118586190Y-87558571D01*
X118633809Y-87463333D01*
X118729047Y-87415714D01*
X118871904Y-87415714D01*
X118967142Y-87463333D01*
X119443333Y-88082380D02*
X119443333Y-87082380D01*
X119871904Y-88082380D02*
X119871904Y-87558571D01*
X119824285Y-87463333D01*
X119729047Y-87415714D01*
X119586190Y-87415714D01*
X119490952Y-87463333D01*
X119443333Y-87510952D01*
X96369047Y-75382380D02*
X96369047Y-74382380D01*
X96607142Y-74382380D01*
X96750000Y-74430000D01*
X96845238Y-74525238D01*
X96892857Y-74620476D01*
X96940476Y-74810952D01*
X96940476Y-74953809D01*
X96892857Y-75144285D01*
X96845238Y-75239523D01*
X96750000Y-75334761D01*
X96607142Y-75382380D01*
X96369047Y-75382380D01*
X97559523Y-74382380D02*
X97750000Y-74382380D01*
X97845238Y-74430000D01*
X97940476Y-74525238D01*
X97988095Y-74715714D01*
X97988095Y-75049047D01*
X97940476Y-75239523D01*
X97845238Y-75334761D01*
X97750000Y-75382380D01*
X97559523Y-75382380D01*
X97464285Y-75334761D01*
X97369047Y-75239523D01*
X97321428Y-75049047D01*
X97321428Y-74715714D01*
X97369047Y-74525238D01*
X97464285Y-74430000D01*
X97559523Y-74382380D01*
X98321428Y-74382380D02*
X98559523Y-75382380D01*
X98750000Y-74668095D01*
X98940476Y-75382380D01*
X99178571Y-74382380D01*
X99559523Y-75382380D02*
X99559523Y-74382380D01*
X100130952Y-75382380D01*
X100130952Y-74382380D01*
X92559285Y-74382380D02*
X92559285Y-75191904D01*
X92606904Y-75287142D01*
X92654523Y-75334761D01*
X92749761Y-75382380D01*
X92940238Y-75382380D01*
X93035476Y-75334761D01*
X93083095Y-75287142D01*
X93130714Y-75191904D01*
X93130714Y-74382380D01*
X93606904Y-75382380D02*
X93606904Y-74382380D01*
X93987857Y-74382380D01*
X94083095Y-74430000D01*
X94130714Y-74477619D01*
X94178333Y-74572857D01*
X94178333Y-74715714D01*
X94130714Y-74810952D01*
X94083095Y-74858571D01*
X93987857Y-74906190D01*
X93606904Y-74906190D01*
X111212380Y-94876666D02*
X111926666Y-94876666D01*
X112069523Y-94924285D01*
X112164761Y-95019523D01*
X112212380Y-95162380D01*
X112212380Y-95257619D01*
X111545714Y-93971904D02*
X112212380Y-93971904D01*
X111545714Y-94400476D02*
X112069523Y-94400476D01*
X112164761Y-94352857D01*
X112212380Y-94257619D01*
X112212380Y-94114761D01*
X112164761Y-94019523D01*
X112117142Y-93971904D01*
X112212380Y-93495714D02*
X111545714Y-93495714D01*
X111640952Y-93495714D02*
X111593333Y-93448095D01*
X111545714Y-93352857D01*
X111545714Y-93210000D01*
X111593333Y-93114761D01*
X111688571Y-93067142D01*
X112212380Y-93067142D01*
X111688571Y-93067142D02*
X111593333Y-93019523D01*
X111545714Y-92924285D01*
X111545714Y-92781428D01*
X111593333Y-92686190D01*
X111688571Y-92638571D01*
X112212380Y-92638571D01*
X111545714Y-92162380D02*
X112545714Y-92162380D01*
X111593333Y-92162380D02*
X111545714Y-92067142D01*
X111545714Y-91876666D01*
X111593333Y-91781428D01*
X111640952Y-91733809D01*
X111736190Y-91686190D01*
X112021904Y-91686190D01*
X112117142Y-91733809D01*
X112164761Y-91781428D01*
X112212380Y-91876666D01*
X112212380Y-92067142D01*
X112164761Y-92162380D01*
X112164761Y-90876666D02*
X112212380Y-90971904D01*
X112212380Y-91162380D01*
X112164761Y-91257619D01*
X112069523Y-91305238D01*
X111688571Y-91305238D01*
X111593333Y-91257619D01*
X111545714Y-91162380D01*
X111545714Y-90971904D01*
X111593333Y-90876666D01*
X111688571Y-90829047D01*
X111783809Y-90829047D01*
X111879047Y-91305238D01*
X112212380Y-90400476D02*
X111545714Y-90400476D01*
X111736190Y-90400476D02*
X111640952Y-90352857D01*
X111593333Y-90305238D01*
X111545714Y-90210000D01*
X111545714Y-90114761D01*
X98353571Y-63086904D02*
X98353571Y-62753571D01*
X98877380Y-62610714D02*
X98877380Y-63086904D01*
X97877380Y-63086904D01*
X97877380Y-62610714D01*
X98829761Y-62229761D02*
X98877380Y-62086904D01*
X98877380Y-61848809D01*
X98829761Y-61753571D01*
X98782142Y-61705952D01*
X98686904Y-61658333D01*
X98591666Y-61658333D01*
X98496428Y-61705952D01*
X98448809Y-61753571D01*
X98401190Y-61848809D01*
X98353571Y-62039285D01*
X98305952Y-62134523D01*
X98258333Y-62182142D01*
X98163095Y-62229761D01*
X98067857Y-62229761D01*
X97972619Y-62182142D01*
X97925000Y-62134523D01*
X97877380Y-62039285D01*
X97877380Y-61801190D01*
X97925000Y-61658333D01*
X98877380Y-61229761D02*
X97877380Y-61229761D01*
X97877380Y-60848809D01*
X97925000Y-60753571D01*
X97972619Y-60705952D01*
X98067857Y-60658333D01*
X98210714Y-60658333D01*
X98305952Y-60705952D01*
X98353571Y-60753571D01*
X98401190Y-60848809D01*
X98401190Y-61229761D01*
X98496428Y-60229761D02*
X98496428Y-59467857D01*
X97877380Y-58801190D02*
X97877380Y-58705952D01*
X97925000Y-58610714D01*
X97972619Y-58563095D01*
X98067857Y-58515476D01*
X98258333Y-58467857D01*
X98496428Y-58467857D01*
X98686904Y-58515476D01*
X98782142Y-58563095D01*
X98829761Y-58610714D01*
X98877380Y-58705952D01*
X98877380Y-58801190D01*
X98829761Y-58896428D01*
X98782142Y-58944047D01*
X98686904Y-58991666D01*
X98496428Y-59039285D01*
X98258333Y-59039285D01*
X98067857Y-58991666D01*
X97972619Y-58944047D01*
X97925000Y-58896428D01*
X97877380Y-58801190D01*
X98877380Y-57515476D02*
X98877380Y-58086904D01*
X98877380Y-57801190D02*
X97877380Y-57801190D01*
X98020238Y-57896428D01*
X98115476Y-57991666D01*
X98163095Y-58086904D01*
X106166666Y-79369047D02*
X106166666Y-78892857D01*
X106452380Y-79464285D02*
X105452380Y-79130952D01*
X106452380Y-78797619D01*
X105452380Y-78607142D02*
X105452380Y-78035714D01*
X106452380Y-78321428D02*
X105452380Y-78321428D01*
X106452380Y-77702380D02*
X105785714Y-77702380D01*
X105880952Y-77702380D02*
X105833333Y-77654761D01*
X105785714Y-77559523D01*
X105785714Y-77416666D01*
X105833333Y-77321428D01*
X105928571Y-77273809D01*
X106452380Y-77273809D01*
X105928571Y-77273809D02*
X105833333Y-77226190D01*
X105785714Y-77130952D01*
X105785714Y-76988095D01*
X105833333Y-76892857D01*
X105928571Y-76845238D01*
X106452380Y-76845238D01*
X106404761Y-75988095D02*
X106452380Y-76083333D01*
X106452380Y-76273809D01*
X106404761Y-76369047D01*
X106309523Y-76416666D01*
X105928571Y-76416666D01*
X105833333Y-76369047D01*
X105785714Y-76273809D01*
X105785714Y-76083333D01*
X105833333Y-75988095D01*
X105928571Y-75940476D01*
X106023809Y-75940476D01*
X106119047Y-76416666D01*
X105785714Y-75083333D02*
X106595238Y-75083333D01*
X106690476Y-75130952D01*
X106738095Y-75178571D01*
X106785714Y-75273809D01*
X106785714Y-75416666D01*
X106738095Y-75511904D01*
X106404761Y-75083333D02*
X106452380Y-75178571D01*
X106452380Y-75369047D01*
X106404761Y-75464285D01*
X106357142Y-75511904D01*
X106261904Y-75559523D01*
X105976190Y-75559523D01*
X105880952Y-75511904D01*
X105833333Y-75464285D01*
X105785714Y-75369047D01*
X105785714Y-75178571D01*
X105833333Y-75083333D01*
X106452380Y-74178571D02*
X105928571Y-74178571D01*
X105833333Y-74226190D01*
X105785714Y-74321428D01*
X105785714Y-74511904D01*
X105833333Y-74607142D01*
X106404761Y-74178571D02*
X106452380Y-74273809D01*
X106452380Y-74511904D01*
X106404761Y-74607142D01*
X106309523Y-74654761D01*
X106214285Y-74654761D01*
X106119047Y-74607142D01*
X106071428Y-74511904D01*
X106071428Y-74273809D01*
X106023809Y-74178571D01*
X91833333Y-89352380D02*
X91500000Y-88876190D01*
X91261904Y-89352380D02*
X91261904Y-88352380D01*
X91642857Y-88352380D01*
X91738095Y-88400000D01*
X91785714Y-88447619D01*
X91833333Y-88542857D01*
X91833333Y-88685714D01*
X91785714Y-88780952D01*
X91738095Y-88828571D01*
X91642857Y-88876190D01*
X91261904Y-88876190D01*
X92166666Y-88352380D02*
X92833333Y-89352380D01*
X92833333Y-88352380D02*
X92166666Y-89352380D01*
X93214285Y-89352380D02*
X93214285Y-88352380D01*
X93452380Y-88352380D01*
X93595238Y-88400000D01*
X93690476Y-88495238D01*
X93738095Y-88590476D01*
X93785714Y-88780952D01*
X93785714Y-88923809D01*
X93738095Y-89114285D01*
X93690476Y-89209523D01*
X93595238Y-89304761D01*
X93452380Y-89352380D01*
X93214285Y-89352380D01*
X91238095Y-85812380D02*
X91809523Y-85812380D01*
X91523809Y-86812380D02*
X91523809Y-85812380D01*
X92047619Y-85812380D02*
X92714285Y-86812380D01*
X92714285Y-85812380D02*
X92047619Y-86812380D01*
X93095238Y-86812380D02*
X93095238Y-85812380D01*
X93333333Y-85812380D01*
X93476190Y-85860000D01*
X93571428Y-85955238D01*
X93619047Y-86050476D01*
X93666666Y-86240952D01*
X93666666Y-86383809D01*
X93619047Y-86574285D01*
X93571428Y-86669523D01*
X93476190Y-86764761D01*
X93333333Y-86812380D01*
X93095238Y-86812380D01*
X102171666Y-60412380D02*
X102505000Y-61412380D01*
X102838333Y-60412380D01*
X103743095Y-61317142D02*
X103695476Y-61364761D01*
X103552619Y-61412380D01*
X103457380Y-61412380D01*
X103314523Y-61364761D01*
X103219285Y-61269523D01*
X103171666Y-61174285D01*
X103124047Y-60983809D01*
X103124047Y-60840952D01*
X103171666Y-60650476D01*
X103219285Y-60555238D01*
X103314523Y-60460000D01*
X103457380Y-60412380D01*
X103552619Y-60412380D01*
X103695476Y-60460000D01*
X103743095Y-60507619D01*
X104743095Y-61317142D02*
X104695476Y-61364761D01*
X104552619Y-61412380D01*
X104457380Y-61412380D01*
X104314523Y-61364761D01*
X104219285Y-61269523D01*
X104171666Y-61174285D01*
X104124047Y-60983809D01*
X104124047Y-60840952D01*
X104171666Y-60650476D01*
X104219285Y-60555238D01*
X104314523Y-60460000D01*
X104457380Y-60412380D01*
X104552619Y-60412380D01*
X104695476Y-60460000D01*
X104743095Y-60507619D01*
X102243095Y-62952380D02*
X102814523Y-62952380D01*
X102528809Y-63952380D02*
X102528809Y-62952380D01*
X103052619Y-62952380D02*
X103719285Y-63952380D01*
X103719285Y-62952380D02*
X103052619Y-63952380D01*
X104100238Y-63952380D02*
X104100238Y-62952380D01*
X104338333Y-62952380D01*
X104481190Y-63000000D01*
X104576428Y-63095238D01*
X104624047Y-63190476D01*
X104671666Y-63380952D01*
X104671666Y-63523809D01*
X104624047Y-63714285D01*
X104576428Y-63809523D01*
X104481190Y-63904761D01*
X104338333Y-63952380D01*
X104100238Y-63952380D01*
X102957380Y-66492380D02*
X102624047Y-66016190D01*
X102385952Y-66492380D02*
X102385952Y-65492380D01*
X102766904Y-65492380D01*
X102862142Y-65540000D01*
X102909761Y-65587619D01*
X102957380Y-65682857D01*
X102957380Y-65825714D01*
X102909761Y-65920952D01*
X102862142Y-65968571D01*
X102766904Y-66016190D01*
X102385952Y-66016190D01*
X103338333Y-66444761D02*
X103481190Y-66492380D01*
X103719285Y-66492380D01*
X103814523Y-66444761D01*
X103862142Y-66397142D01*
X103909761Y-66301904D01*
X103909761Y-66206666D01*
X103862142Y-66111428D01*
X103814523Y-66063809D01*
X103719285Y-66016190D01*
X103528809Y-65968571D01*
X103433571Y-65920952D01*
X103385952Y-65873333D01*
X103338333Y-65778095D01*
X103338333Y-65682857D01*
X103385952Y-65587619D01*
X103433571Y-65540000D01*
X103528809Y-65492380D01*
X103766904Y-65492380D01*
X103909761Y-65540000D01*
X104195476Y-65492380D02*
X104766904Y-65492380D01*
X104481190Y-66492380D02*
X104481190Y-65492380D01*
X102362142Y-69032380D02*
X102362142Y-68032380D01*
X102600238Y-68032380D01*
X102743095Y-68080000D01*
X102838333Y-68175238D01*
X102885952Y-68270476D01*
X102933571Y-68460952D01*
X102933571Y-68603809D01*
X102885952Y-68794285D01*
X102838333Y-68889523D01*
X102743095Y-68984761D01*
X102600238Y-69032380D01*
X102362142Y-69032380D01*
X103219285Y-68032380D02*
X103790714Y-68032380D01*
X103505000Y-69032380D02*
X103505000Y-68032380D01*
X104695476Y-69032380D02*
X104362142Y-68556190D01*
X104124047Y-69032380D02*
X104124047Y-68032380D01*
X104505000Y-68032380D01*
X104600238Y-68080000D01*
X104647857Y-68127619D01*
X104695476Y-68222857D01*
X104695476Y-68365714D01*
X104647857Y-68460952D01*
X104600238Y-68508571D01*
X104505000Y-68556190D01*
X104124047Y-68556190D01*
X116292380Y-69032380D02*
X115959047Y-68556190D01*
X115720952Y-69032380D02*
X115720952Y-68032380D01*
X116101904Y-68032380D01*
X116197142Y-68080000D01*
X116244761Y-68127619D01*
X116292380Y-68222857D01*
X116292380Y-68365714D01*
X116244761Y-68460952D01*
X116197142Y-68508571D01*
X116101904Y-68556190D01*
X115720952Y-68556190D01*
X116578095Y-68032380D02*
X117149523Y-68032380D01*
X116863809Y-69032380D02*
X116863809Y-68032380D01*
X117435238Y-68984761D02*
X117578095Y-69032380D01*
X117816190Y-69032380D01*
X117911428Y-68984761D01*
X117959047Y-68937142D01*
X118006666Y-68841904D01*
X118006666Y-68746666D01*
X117959047Y-68651428D01*
X117911428Y-68603809D01*
X117816190Y-68556190D01*
X117625714Y-68508571D01*
X117530476Y-68460952D01*
X117482857Y-68413333D01*
X117435238Y-68318095D01*
X117435238Y-68222857D01*
X117482857Y-68127619D01*
X117530476Y-68080000D01*
X117625714Y-68032380D01*
X117863809Y-68032380D01*
X118006666Y-68080000D01*
X115411428Y-65968571D02*
X115078095Y-65968571D01*
X115078095Y-66492380D02*
X115078095Y-65492380D01*
X115554285Y-65492380D01*
X116078095Y-66492380D02*
X115982857Y-66444761D01*
X115935238Y-66349523D01*
X115935238Y-65492380D01*
X116887619Y-66492380D02*
X116887619Y-65968571D01*
X116840000Y-65873333D01*
X116744761Y-65825714D01*
X116554285Y-65825714D01*
X116459047Y-65873333D01*
X116887619Y-66444761D02*
X116792380Y-66492380D01*
X116554285Y-66492380D01*
X116459047Y-66444761D01*
X116411428Y-66349523D01*
X116411428Y-66254285D01*
X116459047Y-66159047D01*
X116554285Y-66111428D01*
X116792380Y-66111428D01*
X116887619Y-66063809D01*
X117316190Y-66444761D02*
X117411428Y-66492380D01*
X117601904Y-66492380D01*
X117697142Y-66444761D01*
X117744761Y-66349523D01*
X117744761Y-66301904D01*
X117697142Y-66206666D01*
X117601904Y-66159047D01*
X117459047Y-66159047D01*
X117363809Y-66111428D01*
X117316190Y-66016190D01*
X117316190Y-65968571D01*
X117363809Y-65873333D01*
X117459047Y-65825714D01*
X117601904Y-65825714D01*
X117697142Y-65873333D01*
X118173333Y-66492380D02*
X118173333Y-65492380D01*
X118601904Y-66492380D02*
X118601904Y-65968571D01*
X118554285Y-65873333D01*
X118459047Y-65825714D01*
X118316190Y-65825714D01*
X118220952Y-65873333D01*
X118173333Y-65920952D01*
X116173333Y-63952380D02*
X115840000Y-63476190D01*
X115601904Y-63952380D02*
X115601904Y-62952380D01*
X115982857Y-62952380D01*
X116078095Y-63000000D01*
X116125714Y-63047619D01*
X116173333Y-63142857D01*
X116173333Y-63285714D01*
X116125714Y-63380952D01*
X116078095Y-63428571D01*
X115982857Y-63476190D01*
X115601904Y-63476190D01*
X116506666Y-62952380D02*
X117173333Y-63952380D01*
X117173333Y-62952380D02*
X116506666Y-63952380D01*
X117554285Y-63952380D02*
X117554285Y-62952380D01*
X117792380Y-62952380D01*
X117935238Y-63000000D01*
X118030476Y-63095238D01*
X118078095Y-63190476D01*
X118125714Y-63380952D01*
X118125714Y-63523809D01*
X118078095Y-63714285D01*
X118030476Y-63809523D01*
X117935238Y-63904761D01*
X117792380Y-63952380D01*
X117554285Y-63952380D01*
X116078095Y-60460000D02*
X115982857Y-60412380D01*
X115840000Y-60412380D01*
X115697142Y-60460000D01*
X115601904Y-60555238D01*
X115554285Y-60650476D01*
X115506666Y-60840952D01*
X115506666Y-60983809D01*
X115554285Y-61174285D01*
X115601904Y-61269523D01*
X115697142Y-61364761D01*
X115840000Y-61412380D01*
X115935238Y-61412380D01*
X116078095Y-61364761D01*
X116125714Y-61317142D01*
X116125714Y-60983809D01*
X115935238Y-60983809D01*
X116554285Y-61412380D02*
X116554285Y-60412380D01*
X117125714Y-61412380D01*
X117125714Y-60412380D01*
X117601904Y-61412380D02*
X117601904Y-60412380D01*
X117840000Y-60412380D01*
X117982857Y-60460000D01*
X118078095Y-60555238D01*
X118125714Y-60650476D01*
X118173333Y-60840952D01*
X118173333Y-60983809D01*
X118125714Y-61174285D01*
X118078095Y-61269523D01*
X117982857Y-61364761D01*
X117840000Y-61412380D01*
X117601904Y-61412380D01*
X114321428Y-78516171D02*
X113988095Y-78516171D01*
X113988095Y-79039980D02*
X113988095Y-78039980D01*
X114464285Y-78039980D01*
X114988095Y-79039980D02*
X114892857Y-78992361D01*
X114845238Y-78897123D01*
X114845238Y-78039980D01*
X115797619Y-79039980D02*
X115797619Y-78516171D01*
X115750000Y-78420933D01*
X115654761Y-78373314D01*
X115464285Y-78373314D01*
X115369047Y-78420933D01*
X115797619Y-78992361D02*
X115702380Y-79039980D01*
X115464285Y-79039980D01*
X115369047Y-78992361D01*
X115321428Y-78897123D01*
X115321428Y-78801885D01*
X115369047Y-78706647D01*
X115464285Y-78659028D01*
X115702380Y-78659028D01*
X115797619Y-78611409D01*
X116226190Y-78992361D02*
X116321428Y-79039980D01*
X116511904Y-79039980D01*
X116607142Y-78992361D01*
X116654761Y-78897123D01*
X116654761Y-78849504D01*
X116607142Y-78754266D01*
X116511904Y-78706647D01*
X116369047Y-78706647D01*
X116273809Y-78659028D01*
X116226190Y-78563790D01*
X116226190Y-78516171D01*
X116273809Y-78420933D01*
X116369047Y-78373314D01*
X116511904Y-78373314D01*
X116607142Y-78420933D01*
X117083333Y-79039980D02*
X117083333Y-78039980D01*
X117511904Y-79039980D02*
X117511904Y-78516171D01*
X117464285Y-78420933D01*
X117369047Y-78373314D01*
X117226190Y-78373314D01*
X117130952Y-78420933D01*
X117083333Y-78468552D01*
X107124523Y-87082380D02*
X106648333Y-87082380D01*
X106600714Y-87558571D01*
X106648333Y-87510952D01*
X106743571Y-87463333D01*
X106981666Y-87463333D01*
X107076904Y-87510952D01*
X107124523Y-87558571D01*
X107172142Y-87653809D01*
X107172142Y-87891904D01*
X107124523Y-87987142D01*
X107076904Y-88034761D01*
X106981666Y-88082380D01*
X106743571Y-88082380D01*
X106648333Y-88034761D01*
X106600714Y-87987142D01*
X107457857Y-87082380D02*
X107791190Y-88082380D01*
X108124523Y-87082380D01*
X102266904Y-87082380D02*
X102885952Y-87082380D01*
X102552619Y-87463333D01*
X102695476Y-87463333D01*
X102790714Y-87510952D01*
X102838333Y-87558571D01*
X102885952Y-87653809D01*
X102885952Y-87891904D01*
X102838333Y-87987142D01*
X102790714Y-88034761D01*
X102695476Y-88082380D01*
X102409761Y-88082380D01*
X102314523Y-88034761D01*
X102266904Y-87987142D01*
X103171666Y-87082380D02*
X103505000Y-88082380D01*
X103838333Y-87082380D01*
X104076428Y-87082380D02*
X104695476Y-87082380D01*
X104362142Y-87463333D01*
X104505000Y-87463333D01*
X104600238Y-87510952D01*
X104647857Y-87558571D01*
X104695476Y-87653809D01*
X104695476Y-87891904D01*
X104647857Y-87987142D01*
X104600238Y-88034761D01*
X104505000Y-88082380D01*
X104219285Y-88082380D01*
X104124047Y-88034761D01*
X104076428Y-87987142D01*
D12*
X109920000Y-99150000D02*
X109920000Y-101070000D01*
X119080000Y-101070000D02*
X119080000Y-99150000D01*
X119080000Y-103080000D02*
X119080000Y-104785000D01*
X109920000Y-104785000D02*
X109920000Y-103080000D01*
X119080000Y-104785000D02*
X109920000Y-104785000D01*
X106960000Y-104510000D02*
X106960000Y-102850000D01*
X99040000Y-104510000D02*
X106960000Y-104510000D01*
X99040000Y-102850000D02*
X99040000Y-104510000D01*
X105050000Y-95040000D02*
X106200000Y-95040000D01*
X100950000Y-94450000D02*
X101650000Y-94450000D01*
X100950000Y-95040000D02*
X100950000Y-94450000D01*
X99800000Y-95040000D02*
X100950000Y-95040000D01*
X106960000Y-97350000D02*
X106960000Y-99950000D01*
X99040000Y-99950000D02*
X99040000Y-97350000D01*
X90745000Y-66040000D02*
X90745000Y-64710000D01*
X90745000Y-64710000D02*
X92075000Y-64710000D01*
X90745000Y-67310000D02*
X93345000Y-67310000D01*
X93345000Y-67310000D02*
X93345000Y-64710000D01*
X93345000Y-64710000D02*
X101025000Y-64710000D01*
X101025000Y-69910000D02*
X101025000Y-64710000D01*
X90745000Y-69910000D02*
X101025000Y-69910000D01*
X90745000Y-69910000D02*
X90745000Y-67310000D01*
X105305000Y-73680000D02*
X114405000Y-73680000D01*
X114405000Y-55860000D02*
X114405000Y-73680000D01*
X107255000Y-62230000D02*
X109855000Y-62230000D01*
X109855000Y-62230000D02*
X109855000Y-59630000D01*
X107255000Y-60960000D02*
X107255000Y-59630000D01*
X107255000Y-59630000D02*
X108585000Y-59630000D01*
X105305000Y-73680000D02*
X105305000Y-55860000D01*
X114405000Y-55860000D02*
X105305000Y-55860000D01*
X106295000Y-62520000D02*
X106295000Y-67020000D01*
X106295000Y-62520000D02*
X105305000Y-62520000D01*
X106295000Y-67020000D02*
X105305000Y-67020000D01*
X118930000Y-75570000D02*
X118930000Y-75270000D01*
X123070000Y-72430000D02*
X123070000Y-72730000D01*
X123070000Y-75270000D02*
X123070000Y-75570000D01*
X118930000Y-72430000D02*
X123070000Y-72430000D01*
X118930000Y-72730000D02*
X118930000Y-72430000D01*
X123070000Y-75570000D02*
X118930000Y-75570000D01*
X118930000Y-80310000D02*
X118930000Y-80010000D01*
X123070000Y-77170000D02*
X123070000Y-77470000D01*
X123070000Y-80010000D02*
X123070000Y-80310000D01*
X118930000Y-77170000D02*
X123070000Y-77170000D01*
X118930000Y-77470000D02*
X118930000Y-77170000D01*
X123070000Y-80310000D02*
X118930000Y-80310000D01*
X109280000Y-80585000D02*
X109280000Y-81915000D01*
X107950000Y-80585000D02*
X109280000Y-80585000D01*
X106680000Y-80585000D02*
X106680000Y-83245000D01*
X106680000Y-83245000D02*
X101540000Y-83245000D01*
X106680000Y-80585000D02*
X101540000Y-80585000D01*
X101540000Y-80585000D02*
X101540000Y-83245000D01*
X92015000Y-73720000D02*
X92015000Y-72390000D01*
X93345000Y-73720000D02*
X92015000Y-73720000D01*
X94615000Y-73720000D02*
X94615000Y-71060000D01*
X94615000Y-71060000D02*
X99755000Y-71060000D01*
X94615000Y-73720000D02*
X99755000Y-73720000D01*
X99755000Y-73720000D02*
X99755000Y-71060000D01*
X120955000Y-81220000D02*
X122285000Y-81220000D01*
X120955000Y-82550000D02*
X120955000Y-81220000D01*
X123555000Y-81220000D02*
X126155000Y-81220000D01*
X123555000Y-83820000D02*
X123555000Y-81220000D01*
X120955000Y-83820000D02*
X123555000Y-83820000D01*
X126155000Y-81220000D02*
X126155000Y-88960000D01*
X120955000Y-83820000D02*
X120955000Y-88960000D01*
X120955000Y-88960000D02*
X126155000Y-88960000D01*
X110690000Y-104940000D02*
X110690000Y-104680000D01*
X110690000Y-102400000D02*
X110690000Y-100630000D01*
X110690000Y-100630000D02*
X111070000Y-100630000D01*
X118310000Y-100630000D02*
X118310000Y-102400000D01*
X118310000Y-104680000D02*
X118310000Y-104940000D01*
X118310000Y-100630000D02*
X117930000Y-100630000D01*
X113335000Y-95310000D02*
X113335000Y-93980000D01*
X114665000Y-95310000D02*
X113335000Y-95310000D01*
X113335000Y-92710000D02*
X113335000Y-90110000D01*
X115935000Y-92710000D02*
X113335000Y-92710000D01*
X115935000Y-95310000D02*
X115935000Y-92710000D01*
X113335000Y-90110000D02*
X126155000Y-90110000D01*
X115935000Y-95310000D02*
X126155000Y-95310000D01*
X126155000Y-95310000D02*
X126155000Y-90110000D01*
X107255000Y-77530000D02*
X107255000Y-76200000D01*
X108585000Y-77530000D02*
X107255000Y-77530000D01*
X109855000Y-77530000D02*
X109855000Y-74870000D01*
X109855000Y-74870000D02*
X112455000Y-74870000D01*
X109855000Y-77530000D02*
X112455000Y-77530000D01*
X112455000Y-77530000D02*
X112455000Y-74870000D01*
X124470000Y-76975000D02*
X124470000Y-79660000D01*
X126390000Y-76975000D02*
X124470000Y-76975000D01*
X126390000Y-79660000D02*
X126390000Y-76975000D01*
X124500000Y-72380000D02*
X124500000Y-75065000D01*
X126420000Y-72380000D02*
X124500000Y-72380000D01*
X126420000Y-75065000D02*
X126420000Y-72380000D01*
X109000000Y-84130000D02*
X106315000Y-84130000D01*
X109000000Y-86050000D02*
X109000000Y-84130000D01*
X106315000Y-86050000D02*
X109000000Y-86050000D01*
X95470000Y-83510000D02*
X98155000Y-83510000D01*
X95470000Y-81590000D02*
X95470000Y-83510000D01*
X98155000Y-81590000D02*
X95470000Y-81590000D01*
X95470000Y-89860000D02*
X98155000Y-89860000D01*
X95470000Y-87940000D02*
X95470000Y-89860000D01*
X98155000Y-87940000D02*
X95470000Y-87940000D01*
X95470000Y-87320000D02*
X98155000Y-87320000D01*
X95470000Y-85400000D02*
X95470000Y-87320000D01*
X98155000Y-85400000D02*
X95470000Y-85400000D01*
X105190000Y-84130000D02*
X102505000Y-84130000D01*
X105190000Y-86050000D02*
X105190000Y-84130000D01*
X102505000Y-86050000D02*
X105190000Y-86050000D01*
X95470000Y-80970000D02*
X98155000Y-80970000D01*
X95470000Y-79050000D02*
X95470000Y-80970000D01*
X98155000Y-79050000D02*
X95470000Y-79050000D01*
M02*
