G04 #@! TF.GenerationSoftware,KiCad,Pcbnew,(5.1.7)-1*
G04 #@! TF.CreationDate,2020-12-20T16:40:32+01:00*
G04 #@! TF.ProjectId,uart_flash_pcb,75617274-5f66-46c6-9173-685f7063622e,rev?*
G04 #@! TF.SameCoordinates,Original*
G04 #@! TF.FileFunction,Paste,Top*
G04 #@! TF.FilePolarity,Positive*
%FSLAX46Y46*%
G04 Gerber Fmt 4.6, Leading zero omitted, Abs format (unit mm)*
G04 Created by KiCad (PCBNEW (5.1.7)-1) date 2020-12-20 16:40:32*
%MOMM*%
%LPD*%
G01*
G04 APERTURE LIST*
%ADD10R,0.300000X1.150000*%
%ADD11R,0.500000X2.500000*%
%ADD12R,2.000000X2.500000*%
%ADD13R,1.000000X1.900000*%
%ADD14R,1.800000X1.900000*%
%ADD15R,1.650000X1.300000*%
%ADD16R,1.425000X1.550000*%
%ADD17R,0.450000X1.380000*%
G04 APERTURE END LIST*
D10*
X117850000Y-97330000D03*
X117050000Y-97330000D03*
X112250000Y-97330000D03*
X111450000Y-97330000D03*
X111150000Y-97330000D03*
X111950000Y-97330000D03*
X112750000Y-97330000D03*
X113250000Y-97330000D03*
X113750000Y-97330000D03*
X114250000Y-97330000D03*
X114750000Y-97330000D03*
X115250000Y-97330000D03*
X115750000Y-97330000D03*
X116250000Y-97330000D03*
X116750000Y-97330000D03*
X117550000Y-97330000D03*
D11*
X104600000Y-95900000D03*
X103800000Y-95900000D03*
X103000000Y-95900000D03*
X102200000Y-95900000D03*
X101400000Y-95900000D03*
D12*
X107400000Y-95900000D03*
X98600000Y-95900000D03*
X107400000Y-101400000D03*
X98600000Y-101400000D03*
G36*
G01*
X123700000Y-73300000D02*
X123700000Y-74700000D01*
G75*
G02*
X123400000Y-75000000I-300000J0D01*
G01*
X122800000Y-75000000D01*
G75*
G02*
X122500000Y-74700000I0J300000D01*
G01*
X122500000Y-73300000D01*
G75*
G02*
X122800000Y-73000000I300000J0D01*
G01*
X123400000Y-73000000D01*
G75*
G02*
X123700000Y-73300000I0J-300000D01*
G01*
G37*
G36*
G01*
X119500000Y-73300000D02*
X119500000Y-74700000D01*
G75*
G02*
X119200000Y-75000000I-300000J0D01*
G01*
X118600000Y-75000000D01*
G75*
G02*
X118300000Y-74700000I0J300000D01*
G01*
X118300000Y-73300000D01*
G75*
G02*
X118600000Y-73000000I300000J0D01*
G01*
X119200000Y-73000000D01*
G75*
G02*
X119500000Y-73300000I0J-300000D01*
G01*
G37*
G36*
G01*
X123700000Y-78040000D02*
X123700000Y-79440000D01*
G75*
G02*
X123400000Y-79740000I-300000J0D01*
G01*
X122800000Y-79740000D01*
G75*
G02*
X122500000Y-79440000I0J300000D01*
G01*
X122500000Y-78040000D01*
G75*
G02*
X122800000Y-77740000I300000J0D01*
G01*
X123400000Y-77740000D01*
G75*
G02*
X123700000Y-78040000I0J-300000D01*
G01*
G37*
G36*
G01*
X119500000Y-78040000D02*
X119500000Y-79440000D01*
G75*
G02*
X119200000Y-79740000I-300000J0D01*
G01*
X118600000Y-79740000D01*
G75*
G02*
X118300000Y-79440000I0J300000D01*
G01*
X118300000Y-78040000D01*
G75*
G02*
X118600000Y-77740000I300000J0D01*
G01*
X119200000Y-77740000D01*
G75*
G02*
X119500000Y-78040000I0J-300000D01*
G01*
G37*
D13*
X116050000Y-103540000D03*
D14*
X113350000Y-103540000D03*
D15*
X117875000Y-103540000D03*
X111125000Y-103540000D03*
D16*
X116987500Y-100965000D03*
X112012500Y-100965000D03*
D17*
X115800000Y-100880000D03*
X115150000Y-100880000D03*
X114500000Y-100880000D03*
X113850000Y-100880000D03*
X113200000Y-100880000D03*
G36*
G01*
X124973750Y-79110000D02*
X125886250Y-79110000D01*
G75*
G02*
X126130000Y-79353750I0J-243750D01*
G01*
X126130000Y-79841250D01*
G75*
G02*
X125886250Y-80085000I-243750J0D01*
G01*
X124973750Y-80085000D01*
G75*
G02*
X124730000Y-79841250I0J243750D01*
G01*
X124730000Y-79353750D01*
G75*
G02*
X124973750Y-79110000I243750J0D01*
G01*
G37*
G36*
G01*
X124973750Y-77235000D02*
X125886250Y-77235000D01*
G75*
G02*
X126130000Y-77478750I0J-243750D01*
G01*
X126130000Y-77966250D01*
G75*
G02*
X125886250Y-78210000I-243750J0D01*
G01*
X124973750Y-78210000D01*
G75*
G02*
X124730000Y-77966250I0J243750D01*
G01*
X124730000Y-77478750D01*
G75*
G02*
X124973750Y-77235000I243750J0D01*
G01*
G37*
G36*
G01*
X125003750Y-74515000D02*
X125916250Y-74515000D01*
G75*
G02*
X126160000Y-74758750I0J-243750D01*
G01*
X126160000Y-75246250D01*
G75*
G02*
X125916250Y-75490000I-243750J0D01*
G01*
X125003750Y-75490000D01*
G75*
G02*
X124760000Y-75246250I0J243750D01*
G01*
X124760000Y-74758750D01*
G75*
G02*
X125003750Y-74515000I243750J0D01*
G01*
G37*
G36*
G01*
X125003750Y-72640000D02*
X125916250Y-72640000D01*
G75*
G02*
X126160000Y-72883750I0J-243750D01*
G01*
X126160000Y-73371250D01*
G75*
G02*
X125916250Y-73615000I-243750J0D01*
G01*
X125003750Y-73615000D01*
G75*
G02*
X124760000Y-73371250I0J243750D01*
G01*
X124760000Y-72883750D01*
G75*
G02*
X125003750Y-72640000I243750J0D01*
G01*
G37*
G36*
G01*
X106865000Y-84633750D02*
X106865000Y-85546250D01*
G75*
G02*
X106621250Y-85790000I-243750J0D01*
G01*
X106133750Y-85790000D01*
G75*
G02*
X105890000Y-85546250I0J243750D01*
G01*
X105890000Y-84633750D01*
G75*
G02*
X106133750Y-84390000I243750J0D01*
G01*
X106621250Y-84390000D01*
G75*
G02*
X106865000Y-84633750I0J-243750D01*
G01*
G37*
G36*
G01*
X108740000Y-84633750D02*
X108740000Y-85546250D01*
G75*
G02*
X108496250Y-85790000I-243750J0D01*
G01*
X108008750Y-85790000D01*
G75*
G02*
X107765000Y-85546250I0J243750D01*
G01*
X107765000Y-84633750D01*
G75*
G02*
X108008750Y-84390000I243750J0D01*
G01*
X108496250Y-84390000D01*
G75*
G02*
X108740000Y-84633750I0J-243750D01*
G01*
G37*
G36*
G01*
X97605000Y-83006250D02*
X97605000Y-82093750D01*
G75*
G02*
X97848750Y-81850000I243750J0D01*
G01*
X98336250Y-81850000D01*
G75*
G02*
X98580000Y-82093750I0J-243750D01*
G01*
X98580000Y-83006250D01*
G75*
G02*
X98336250Y-83250000I-243750J0D01*
G01*
X97848750Y-83250000D01*
G75*
G02*
X97605000Y-83006250I0J243750D01*
G01*
G37*
G36*
G01*
X95730000Y-83006250D02*
X95730000Y-82093750D01*
G75*
G02*
X95973750Y-81850000I243750J0D01*
G01*
X96461250Y-81850000D01*
G75*
G02*
X96705000Y-82093750I0J-243750D01*
G01*
X96705000Y-83006250D01*
G75*
G02*
X96461250Y-83250000I-243750J0D01*
G01*
X95973750Y-83250000D01*
G75*
G02*
X95730000Y-83006250I0J243750D01*
G01*
G37*
G36*
G01*
X97605000Y-89356250D02*
X97605000Y-88443750D01*
G75*
G02*
X97848750Y-88200000I243750J0D01*
G01*
X98336250Y-88200000D01*
G75*
G02*
X98580000Y-88443750I0J-243750D01*
G01*
X98580000Y-89356250D01*
G75*
G02*
X98336250Y-89600000I-243750J0D01*
G01*
X97848750Y-89600000D01*
G75*
G02*
X97605000Y-89356250I0J243750D01*
G01*
G37*
G36*
G01*
X95730000Y-89356250D02*
X95730000Y-88443750D01*
G75*
G02*
X95973750Y-88200000I243750J0D01*
G01*
X96461250Y-88200000D01*
G75*
G02*
X96705000Y-88443750I0J-243750D01*
G01*
X96705000Y-89356250D01*
G75*
G02*
X96461250Y-89600000I-243750J0D01*
G01*
X95973750Y-89600000D01*
G75*
G02*
X95730000Y-89356250I0J243750D01*
G01*
G37*
G36*
G01*
X97605000Y-86816250D02*
X97605000Y-85903750D01*
G75*
G02*
X97848750Y-85660000I243750J0D01*
G01*
X98336250Y-85660000D01*
G75*
G02*
X98580000Y-85903750I0J-243750D01*
G01*
X98580000Y-86816250D01*
G75*
G02*
X98336250Y-87060000I-243750J0D01*
G01*
X97848750Y-87060000D01*
G75*
G02*
X97605000Y-86816250I0J243750D01*
G01*
G37*
G36*
G01*
X95730000Y-86816250D02*
X95730000Y-85903750D01*
G75*
G02*
X95973750Y-85660000I243750J0D01*
G01*
X96461250Y-85660000D01*
G75*
G02*
X96705000Y-85903750I0J-243750D01*
G01*
X96705000Y-86816250D01*
G75*
G02*
X96461250Y-87060000I-243750J0D01*
G01*
X95973750Y-87060000D01*
G75*
G02*
X95730000Y-86816250I0J243750D01*
G01*
G37*
G36*
G01*
X103055000Y-84633750D02*
X103055000Y-85546250D01*
G75*
G02*
X102811250Y-85790000I-243750J0D01*
G01*
X102323750Y-85790000D01*
G75*
G02*
X102080000Y-85546250I0J243750D01*
G01*
X102080000Y-84633750D01*
G75*
G02*
X102323750Y-84390000I243750J0D01*
G01*
X102811250Y-84390000D01*
G75*
G02*
X103055000Y-84633750I0J-243750D01*
G01*
G37*
G36*
G01*
X104930000Y-84633750D02*
X104930000Y-85546250D01*
G75*
G02*
X104686250Y-85790000I-243750J0D01*
G01*
X104198750Y-85790000D01*
G75*
G02*
X103955000Y-85546250I0J243750D01*
G01*
X103955000Y-84633750D01*
G75*
G02*
X104198750Y-84390000I243750J0D01*
G01*
X104686250Y-84390000D01*
G75*
G02*
X104930000Y-84633750I0J-243750D01*
G01*
G37*
G36*
G01*
X97605000Y-80466250D02*
X97605000Y-79553750D01*
G75*
G02*
X97848750Y-79310000I243750J0D01*
G01*
X98336250Y-79310000D01*
G75*
G02*
X98580000Y-79553750I0J-243750D01*
G01*
X98580000Y-80466250D01*
G75*
G02*
X98336250Y-80710000I-243750J0D01*
G01*
X97848750Y-80710000D01*
G75*
G02*
X97605000Y-80466250I0J243750D01*
G01*
G37*
G36*
G01*
X95730000Y-80466250D02*
X95730000Y-79553750D01*
G75*
G02*
X95973750Y-79310000I243750J0D01*
G01*
X96461250Y-79310000D01*
G75*
G02*
X96705000Y-79553750I0J-243750D01*
G01*
X96705000Y-80466250D01*
G75*
G02*
X96461250Y-80710000I-243750J0D01*
G01*
X95973750Y-80710000D01*
G75*
G02*
X95730000Y-80466250I0J243750D01*
G01*
G37*
M02*
