G04 #@! TF.GenerationSoftware,KiCad,Pcbnew,(5.1.7)-1*
G04 #@! TF.CreationDate,2020-12-20T16:40:32+01:00*
G04 #@! TF.ProjectId,uart_flash_pcb,75617274-5f66-46c6-9173-685f7063622e,rev?*
G04 #@! TF.SameCoordinates,Original*
G04 #@! TF.FileFunction,Paste,Bot*
G04 #@! TF.FilePolarity,Positive*
%FSLAX46Y46*%
G04 Gerber Fmt 4.6, Leading zero omitted, Abs format (unit mm)*
G04 Created by KiCad (PCBNEW (5.1.7)-1) date 2020-12-20 16:40:32*
%MOMM*%
%LPD*%
G01*
G04 APERTURE LIST*
%ADD10R,1.750000X0.450000*%
%ADD11R,2.000000X1.500000*%
%ADD12R,2.000000X3.800000*%
%ADD13R,0.800000X0.900000*%
%ADD14R,0.900000X0.800000*%
%ADD15R,0.600000X0.450000*%
G04 APERTURE END LIST*
G36*
G01*
X119690000Y-71965000D02*
X119690000Y-72915000D01*
G75*
G02*
X119440000Y-73165000I-250000J0D01*
G01*
X118940000Y-73165000D01*
G75*
G02*
X118690000Y-72915000I0J250000D01*
G01*
X118690000Y-71965000D01*
G75*
G02*
X118940000Y-71715000I250000J0D01*
G01*
X119440000Y-71715000D01*
G75*
G02*
X119690000Y-71965000I0J-250000D01*
G01*
G37*
G36*
G01*
X121590000Y-71965000D02*
X121590000Y-72915000D01*
G75*
G02*
X121340000Y-73165000I-250000J0D01*
G01*
X120840000Y-73165000D01*
G75*
G02*
X120590000Y-72915000I0J250000D01*
G01*
X120590000Y-71965000D01*
G75*
G02*
X120840000Y-71715000I250000J0D01*
G01*
X121340000Y-71715000D01*
G75*
G02*
X121590000Y-71965000I0J-250000D01*
G01*
G37*
G36*
G01*
X111699999Y-83660000D02*
X112600001Y-83660000D01*
G75*
G02*
X112850000Y-83909999I0J-249999D01*
G01*
X112850000Y-84435001D01*
G75*
G02*
X112600001Y-84685000I-249999J0D01*
G01*
X111699999Y-84685000D01*
G75*
G02*
X111450000Y-84435001I0J249999D01*
G01*
X111450000Y-83909999D01*
G75*
G02*
X111699999Y-83660000I249999J0D01*
G01*
G37*
G36*
G01*
X111699999Y-81835000D02*
X112600001Y-81835000D01*
G75*
G02*
X112850000Y-82084999I0J-249999D01*
G01*
X112850000Y-82610001D01*
G75*
G02*
X112600001Y-82860000I-249999J0D01*
G01*
X111699999Y-82860000D01*
G75*
G02*
X111450000Y-82610001I0J249999D01*
G01*
X111450000Y-82084999D01*
G75*
G02*
X111699999Y-81835000I249999J0D01*
G01*
G37*
G36*
G01*
X119820000Y-70570000D02*
X119820000Y-70270000D01*
G75*
G02*
X119970000Y-70120000I150000J0D01*
G01*
X121620000Y-70120000D01*
G75*
G02*
X121770000Y-70270000I0J-150000D01*
G01*
X121770000Y-70570000D01*
G75*
G02*
X121620000Y-70720000I-150000J0D01*
G01*
X119970000Y-70720000D01*
G75*
G02*
X119820000Y-70570000I0J150000D01*
G01*
G37*
G36*
G01*
X119820000Y-69300000D02*
X119820000Y-69000000D01*
G75*
G02*
X119970000Y-68850000I150000J0D01*
G01*
X121620000Y-68850000D01*
G75*
G02*
X121770000Y-69000000I0J-150000D01*
G01*
X121770000Y-69300000D01*
G75*
G02*
X121620000Y-69450000I-150000J0D01*
G01*
X119970000Y-69450000D01*
G75*
G02*
X119820000Y-69300000I0J150000D01*
G01*
G37*
G36*
G01*
X119820000Y-68030000D02*
X119820000Y-67730000D01*
G75*
G02*
X119970000Y-67580000I150000J0D01*
G01*
X121620000Y-67580000D01*
G75*
G02*
X121770000Y-67730000I0J-150000D01*
G01*
X121770000Y-68030000D01*
G75*
G02*
X121620000Y-68180000I-150000J0D01*
G01*
X119970000Y-68180000D01*
G75*
G02*
X119820000Y-68030000I0J150000D01*
G01*
G37*
G36*
G01*
X119820000Y-66760000D02*
X119820000Y-66460000D01*
G75*
G02*
X119970000Y-66310000I150000J0D01*
G01*
X121620000Y-66310000D01*
G75*
G02*
X121770000Y-66460000I0J-150000D01*
G01*
X121770000Y-66760000D01*
G75*
G02*
X121620000Y-66910000I-150000J0D01*
G01*
X119970000Y-66910000D01*
G75*
G02*
X119820000Y-66760000I0J150000D01*
G01*
G37*
G36*
G01*
X119820000Y-65490000D02*
X119820000Y-65190000D01*
G75*
G02*
X119970000Y-65040000I150000J0D01*
G01*
X121620000Y-65040000D01*
G75*
G02*
X121770000Y-65190000I0J-150000D01*
G01*
X121770000Y-65490000D01*
G75*
G02*
X121620000Y-65640000I-150000J0D01*
G01*
X119970000Y-65640000D01*
G75*
G02*
X119820000Y-65490000I0J150000D01*
G01*
G37*
G36*
G01*
X119820000Y-64220000D02*
X119820000Y-63920000D01*
G75*
G02*
X119970000Y-63770000I150000J0D01*
G01*
X121620000Y-63770000D01*
G75*
G02*
X121770000Y-63920000I0J-150000D01*
G01*
X121770000Y-64220000D01*
G75*
G02*
X121620000Y-64370000I-150000J0D01*
G01*
X119970000Y-64370000D01*
G75*
G02*
X119820000Y-64220000I0J150000D01*
G01*
G37*
G36*
G01*
X119820000Y-62950000D02*
X119820000Y-62650000D01*
G75*
G02*
X119970000Y-62500000I150000J0D01*
G01*
X121620000Y-62500000D01*
G75*
G02*
X121770000Y-62650000I0J-150000D01*
G01*
X121770000Y-62950000D01*
G75*
G02*
X121620000Y-63100000I-150000J0D01*
G01*
X119970000Y-63100000D01*
G75*
G02*
X119820000Y-62950000I0J150000D01*
G01*
G37*
G36*
G01*
X114870000Y-62950000D02*
X114870000Y-62650000D01*
G75*
G02*
X115020000Y-62500000I150000J0D01*
G01*
X116670000Y-62500000D01*
G75*
G02*
X116820000Y-62650000I0J-150000D01*
G01*
X116820000Y-62950000D01*
G75*
G02*
X116670000Y-63100000I-150000J0D01*
G01*
X115020000Y-63100000D01*
G75*
G02*
X114870000Y-62950000I0J150000D01*
G01*
G37*
G36*
G01*
X114870000Y-64220000D02*
X114870000Y-63920000D01*
G75*
G02*
X115020000Y-63770000I150000J0D01*
G01*
X116670000Y-63770000D01*
G75*
G02*
X116820000Y-63920000I0J-150000D01*
G01*
X116820000Y-64220000D01*
G75*
G02*
X116670000Y-64370000I-150000J0D01*
G01*
X115020000Y-64370000D01*
G75*
G02*
X114870000Y-64220000I0J150000D01*
G01*
G37*
G36*
G01*
X114870000Y-65490000D02*
X114870000Y-65190000D01*
G75*
G02*
X115020000Y-65040000I150000J0D01*
G01*
X116670000Y-65040000D01*
G75*
G02*
X116820000Y-65190000I0J-150000D01*
G01*
X116820000Y-65490000D01*
G75*
G02*
X116670000Y-65640000I-150000J0D01*
G01*
X115020000Y-65640000D01*
G75*
G02*
X114870000Y-65490000I0J150000D01*
G01*
G37*
G36*
G01*
X114870000Y-66760000D02*
X114870000Y-66460000D01*
G75*
G02*
X115020000Y-66310000I150000J0D01*
G01*
X116670000Y-66310000D01*
G75*
G02*
X116820000Y-66460000I0J-150000D01*
G01*
X116820000Y-66760000D01*
G75*
G02*
X116670000Y-66910000I-150000J0D01*
G01*
X115020000Y-66910000D01*
G75*
G02*
X114870000Y-66760000I0J150000D01*
G01*
G37*
G36*
G01*
X114870000Y-68030000D02*
X114870000Y-67730000D01*
G75*
G02*
X115020000Y-67580000I150000J0D01*
G01*
X116670000Y-67580000D01*
G75*
G02*
X116820000Y-67730000I0J-150000D01*
G01*
X116820000Y-68030000D01*
G75*
G02*
X116670000Y-68180000I-150000J0D01*
G01*
X115020000Y-68180000D01*
G75*
G02*
X114870000Y-68030000I0J150000D01*
G01*
G37*
G36*
G01*
X114870000Y-69300000D02*
X114870000Y-69000000D01*
G75*
G02*
X115020000Y-68850000I150000J0D01*
G01*
X116670000Y-68850000D01*
G75*
G02*
X116820000Y-69000000I0J-150000D01*
G01*
X116820000Y-69300000D01*
G75*
G02*
X116670000Y-69450000I-150000J0D01*
G01*
X115020000Y-69450000D01*
G75*
G02*
X114870000Y-69300000I0J150000D01*
G01*
G37*
G36*
G01*
X114870000Y-70570000D02*
X114870000Y-70270000D01*
G75*
G02*
X115020000Y-70120000I150000J0D01*
G01*
X116670000Y-70120000D01*
G75*
G02*
X116820000Y-70270000I0J-150000D01*
G01*
X116820000Y-70570000D01*
G75*
G02*
X116670000Y-70720000I-150000J0D01*
G01*
X115020000Y-70720000D01*
G75*
G02*
X114870000Y-70570000I0J150000D01*
G01*
G37*
D10*
X104560000Y-87185000D03*
X104560000Y-87835000D03*
X104560000Y-88485000D03*
X104560000Y-89135000D03*
X104560000Y-89785000D03*
X104560000Y-90435000D03*
X104560000Y-91085000D03*
X104560000Y-91735000D03*
X104560000Y-92385000D03*
X104560000Y-93035000D03*
X104560000Y-93685000D03*
X104560000Y-94335000D03*
X104560000Y-94985000D03*
X104560000Y-95635000D03*
X111760000Y-95635000D03*
X111760000Y-94985000D03*
X111760000Y-94335000D03*
X111760000Y-93685000D03*
X111760000Y-93035000D03*
X111760000Y-92385000D03*
X111760000Y-91735000D03*
X111760000Y-91085000D03*
X111760000Y-90435000D03*
X111760000Y-89785000D03*
X111760000Y-89135000D03*
X111760000Y-88485000D03*
X111760000Y-87835000D03*
X111760000Y-87185000D03*
D11*
X97900000Y-84750000D03*
X97900000Y-89350000D03*
X97900000Y-87050000D03*
D12*
X91600000Y-87050000D03*
G36*
G01*
X116860001Y-85080000D02*
X115959999Y-85080000D01*
G75*
G02*
X115710000Y-84830001I0J249999D01*
G01*
X115710000Y-84304999D01*
G75*
G02*
X115959999Y-84055000I249999J0D01*
G01*
X116860001Y-84055000D01*
G75*
G02*
X117110000Y-84304999I0J-249999D01*
G01*
X117110000Y-84830001D01*
G75*
G02*
X116860001Y-85080000I-249999J0D01*
G01*
G37*
G36*
G01*
X116860001Y-86905000D02*
X115959999Y-86905000D01*
G75*
G02*
X115710000Y-86655001I0J249999D01*
G01*
X115710000Y-86129999D01*
G75*
G02*
X115959999Y-85880000I249999J0D01*
G01*
X116860001Y-85880000D01*
G75*
G02*
X117110000Y-86129999I0J-249999D01*
G01*
X117110000Y-86655001D01*
G75*
G02*
X116860001Y-86905000I-249999J0D01*
G01*
G37*
G36*
G01*
X119569999Y-82420000D02*
X120470001Y-82420000D01*
G75*
G02*
X120720000Y-82669999I0J-249999D01*
G01*
X120720000Y-83195001D01*
G75*
G02*
X120470001Y-83445000I-249999J0D01*
G01*
X119569999Y-83445000D01*
G75*
G02*
X119320000Y-83195001I0J249999D01*
G01*
X119320000Y-82669999D01*
G75*
G02*
X119569999Y-82420000I249999J0D01*
G01*
G37*
G36*
G01*
X119569999Y-80595000D02*
X120470001Y-80595000D01*
G75*
G02*
X120720000Y-80844999I0J-249999D01*
G01*
X120720000Y-81370001D01*
G75*
G02*
X120470001Y-81620000I-249999J0D01*
G01*
X119569999Y-81620000D01*
G75*
G02*
X119320000Y-81370001I0J249999D01*
G01*
X119320000Y-80844999D01*
G75*
G02*
X119569999Y-80595000I249999J0D01*
G01*
G37*
G36*
G01*
X123550000Y-74059999D02*
X123550000Y-74960001D01*
G75*
G02*
X123300001Y-75210000I-249999J0D01*
G01*
X122774999Y-75210000D01*
G75*
G02*
X122525000Y-74960001I0J249999D01*
G01*
X122525000Y-74059999D01*
G75*
G02*
X122774999Y-73810000I249999J0D01*
G01*
X123300001Y-73810000D01*
G75*
G02*
X123550000Y-74059999I0J-249999D01*
G01*
G37*
G36*
G01*
X125375000Y-74059999D02*
X125375000Y-74960001D01*
G75*
G02*
X125125001Y-75210000I-249999J0D01*
G01*
X124599999Y-75210000D01*
G75*
G02*
X124350000Y-74960001I0J249999D01*
G01*
X124350000Y-74059999D01*
G75*
G02*
X124599999Y-73810000I249999J0D01*
G01*
X125125001Y-73810000D01*
G75*
G02*
X125375000Y-74059999I0J-249999D01*
G01*
G37*
G36*
G01*
X120580000Y-74990001D02*
X120580000Y-74089999D01*
G75*
G02*
X120829999Y-73840000I249999J0D01*
G01*
X121355001Y-73840000D01*
G75*
G02*
X121605000Y-74089999I0J-249999D01*
G01*
X121605000Y-74990001D01*
G75*
G02*
X121355001Y-75240000I-249999J0D01*
G01*
X120829999Y-75240000D01*
G75*
G02*
X120580000Y-74990001I0J249999D01*
G01*
G37*
G36*
G01*
X118755000Y-74990001D02*
X118755000Y-74089999D01*
G75*
G02*
X119004999Y-73840000I249999J0D01*
G01*
X119530001Y-73840000D01*
G75*
G02*
X119780000Y-74089999I0J-249999D01*
G01*
X119780000Y-74990001D01*
G75*
G02*
X119530001Y-75240000I-249999J0D01*
G01*
X119004999Y-75240000D01*
G75*
G02*
X118755000Y-74990001I0J249999D01*
G01*
G37*
G36*
G01*
X124420000Y-79660001D02*
X124420000Y-78759999D01*
G75*
G02*
X124669999Y-78510000I249999J0D01*
G01*
X125195001Y-78510000D01*
G75*
G02*
X125445000Y-78759999I0J-249999D01*
G01*
X125445000Y-79660001D01*
G75*
G02*
X125195001Y-79910000I-249999J0D01*
G01*
X124669999Y-79910000D01*
G75*
G02*
X124420000Y-79660001I0J249999D01*
G01*
G37*
G36*
G01*
X122595000Y-79660001D02*
X122595000Y-78759999D01*
G75*
G02*
X122844999Y-78510000I249999J0D01*
G01*
X123370001Y-78510000D01*
G75*
G02*
X123620000Y-78759999I0J-249999D01*
G01*
X123620000Y-79660001D01*
G75*
G02*
X123370001Y-79910000I-249999J0D01*
G01*
X122844999Y-79910000D01*
G75*
G02*
X122595000Y-79660001I0J249999D01*
G01*
G37*
G36*
G01*
X124410000Y-77590001D02*
X124410000Y-76689999D01*
G75*
G02*
X124659999Y-76440000I249999J0D01*
G01*
X125185001Y-76440000D01*
G75*
G02*
X125435000Y-76689999I0J-249999D01*
G01*
X125435000Y-77590001D01*
G75*
G02*
X125185001Y-77840000I-249999J0D01*
G01*
X124659999Y-77840000D01*
G75*
G02*
X124410000Y-77590001I0J249999D01*
G01*
G37*
G36*
G01*
X122585000Y-77590001D02*
X122585000Y-76689999D01*
G75*
G02*
X122834999Y-76440000I249999J0D01*
G01*
X123360001Y-76440000D01*
G75*
G02*
X123610000Y-76689999I0J-249999D01*
G01*
X123610000Y-77590001D01*
G75*
G02*
X123360001Y-77840000I-249999J0D01*
G01*
X122834999Y-77840000D01*
G75*
G02*
X122585000Y-77590001I0J249999D01*
G01*
G37*
G36*
G01*
X119800000Y-78759999D02*
X119800000Y-79660001D01*
G75*
G02*
X119550001Y-79910000I-249999J0D01*
G01*
X119024999Y-79910000D01*
G75*
G02*
X118775000Y-79660001I0J249999D01*
G01*
X118775000Y-78759999D01*
G75*
G02*
X119024999Y-78510000I249999J0D01*
G01*
X119550001Y-78510000D01*
G75*
G02*
X119800000Y-78759999I0J-249999D01*
G01*
G37*
G36*
G01*
X121625000Y-78759999D02*
X121625000Y-79660001D01*
G75*
G02*
X121375001Y-79910000I-249999J0D01*
G01*
X120849999Y-79910000D01*
G75*
G02*
X120600000Y-79660001I0J249999D01*
G01*
X120600000Y-78759999D01*
G75*
G02*
X120849999Y-78510000I249999J0D01*
G01*
X121375001Y-78510000D01*
G75*
G02*
X121625000Y-78759999I0J-249999D01*
G01*
G37*
G36*
G01*
X119830000Y-76689999D02*
X119830000Y-77590001D01*
G75*
G02*
X119580001Y-77840000I-249999J0D01*
G01*
X119054999Y-77840000D01*
G75*
G02*
X118805000Y-77590001I0J249999D01*
G01*
X118805000Y-76689999D01*
G75*
G02*
X119054999Y-76440000I249999J0D01*
G01*
X119580001Y-76440000D01*
G75*
G02*
X119830000Y-76689999I0J-249999D01*
G01*
G37*
G36*
G01*
X121655000Y-76689999D02*
X121655000Y-77590001D01*
G75*
G02*
X121405001Y-77840000I-249999J0D01*
G01*
X120879999Y-77840000D01*
G75*
G02*
X120630000Y-77590001I0J249999D01*
G01*
X120630000Y-76689999D01*
G75*
G02*
X120879999Y-76440000I249999J0D01*
G01*
X121405001Y-76440000D01*
G75*
G02*
X121655000Y-76689999I0J-249999D01*
G01*
G37*
G36*
G01*
X112650000Y-74500001D02*
X112650000Y-73599999D01*
G75*
G02*
X112899999Y-73350000I249999J0D01*
G01*
X113425001Y-73350000D01*
G75*
G02*
X113675000Y-73599999I0J-249999D01*
G01*
X113675000Y-74500001D01*
G75*
G02*
X113425001Y-74750000I-249999J0D01*
G01*
X112899999Y-74750000D01*
G75*
G02*
X112650000Y-74500001I0J249999D01*
G01*
G37*
G36*
G01*
X110825000Y-74500001D02*
X110825000Y-73599999D01*
G75*
G02*
X111074999Y-73350000I249999J0D01*
G01*
X111600001Y-73350000D01*
G75*
G02*
X111850000Y-73599999I0J-249999D01*
G01*
X111850000Y-74500001D01*
G75*
G02*
X111600001Y-74750000I-249999J0D01*
G01*
X111074999Y-74750000D01*
G75*
G02*
X110825000Y-74500001I0J249999D01*
G01*
G37*
G36*
G01*
X112640000Y-72320001D02*
X112640000Y-71419999D01*
G75*
G02*
X112889999Y-71170000I249999J0D01*
G01*
X113415001Y-71170000D01*
G75*
G02*
X113665000Y-71419999I0J-249999D01*
G01*
X113665000Y-72320001D01*
G75*
G02*
X113415001Y-72570000I-249999J0D01*
G01*
X112889999Y-72570000D01*
G75*
G02*
X112640000Y-72320001I0J249999D01*
G01*
G37*
G36*
G01*
X110815000Y-72320001D02*
X110815000Y-71419999D01*
G75*
G02*
X111064999Y-71170000I249999J0D01*
G01*
X111590001Y-71170000D01*
G75*
G02*
X111840000Y-71419999I0J-249999D01*
G01*
X111840000Y-72320001D01*
G75*
G02*
X111590001Y-72570000I-249999J0D01*
G01*
X111064999Y-72570000D01*
G75*
G02*
X110815000Y-72320001I0J249999D01*
G01*
G37*
G36*
G01*
X109880000Y-59220001D02*
X109880000Y-58319999D01*
G75*
G02*
X110129999Y-58070000I249999J0D01*
G01*
X110655001Y-58070000D01*
G75*
G02*
X110905000Y-58319999I0J-249999D01*
G01*
X110905000Y-59220001D01*
G75*
G02*
X110655001Y-59470000I-249999J0D01*
G01*
X110129999Y-59470000D01*
G75*
G02*
X109880000Y-59220001I0J249999D01*
G01*
G37*
G36*
G01*
X108055000Y-59220001D02*
X108055000Y-58319999D01*
G75*
G02*
X108304999Y-58070000I249999J0D01*
G01*
X108830001Y-58070000D01*
G75*
G02*
X109080000Y-58319999I0J-249999D01*
G01*
X109080000Y-59220001D01*
G75*
G02*
X108830001Y-59470000I-249999J0D01*
G01*
X108304999Y-59470000D01*
G75*
G02*
X108055000Y-59220001I0J249999D01*
G01*
G37*
G36*
G01*
X106770001Y-59420000D02*
X105869999Y-59420000D01*
G75*
G02*
X105620000Y-59170001I0J249999D01*
G01*
X105620000Y-58644999D01*
G75*
G02*
X105869999Y-58395000I249999J0D01*
G01*
X106770001Y-58395000D01*
G75*
G02*
X107020000Y-58644999I0J-249999D01*
G01*
X107020000Y-59170001D01*
G75*
G02*
X106770001Y-59420000I-249999J0D01*
G01*
G37*
G36*
G01*
X106770001Y-61245000D02*
X105869999Y-61245000D01*
G75*
G02*
X105620000Y-60995001I0J249999D01*
G01*
X105620000Y-60469999D01*
G75*
G02*
X105869999Y-60220000I249999J0D01*
G01*
X106770001Y-60220000D01*
G75*
G02*
X107020000Y-60469999I0J-249999D01*
G01*
X107020000Y-60995001D01*
G75*
G02*
X106770001Y-61245000I-249999J0D01*
G01*
G37*
G36*
G01*
X106600000Y-84009999D02*
X106600000Y-84910001D01*
G75*
G02*
X106350001Y-85160000I-249999J0D01*
G01*
X105824999Y-85160000D01*
G75*
G02*
X105575000Y-84910001I0J249999D01*
G01*
X105575000Y-84009999D01*
G75*
G02*
X105824999Y-83760000I249999J0D01*
G01*
X106350001Y-83760000D01*
G75*
G02*
X106600000Y-84009999I0J-249999D01*
G01*
G37*
G36*
G01*
X108425000Y-84009999D02*
X108425000Y-84910001D01*
G75*
G02*
X108175001Y-85160000I-249999J0D01*
G01*
X107649999Y-85160000D01*
G75*
G02*
X107400000Y-84910001I0J249999D01*
G01*
X107400000Y-84009999D01*
G75*
G02*
X107649999Y-83760000I249999J0D01*
G01*
X108175001Y-83760000D01*
G75*
G02*
X108425000Y-84009999I0J-249999D01*
G01*
G37*
G36*
G01*
X115230001Y-59800000D02*
X114329999Y-59800000D01*
G75*
G02*
X114080000Y-59550001I0J249999D01*
G01*
X114080000Y-59024999D01*
G75*
G02*
X114329999Y-58775000I249999J0D01*
G01*
X115230001Y-58775000D01*
G75*
G02*
X115480000Y-59024999I0J-249999D01*
G01*
X115480000Y-59550001D01*
G75*
G02*
X115230001Y-59800000I-249999J0D01*
G01*
G37*
G36*
G01*
X115230001Y-61625000D02*
X114329999Y-61625000D01*
G75*
G02*
X114080000Y-61375001I0J249999D01*
G01*
X114080000Y-60849999D01*
G75*
G02*
X114329999Y-60600000I249999J0D01*
G01*
X115230001Y-60600000D01*
G75*
G02*
X115480000Y-60849999I0J-249999D01*
G01*
X115480000Y-61375001D01*
G75*
G02*
X115230001Y-61625000I-249999J0D01*
G01*
G37*
G36*
G01*
X105990000Y-80020001D02*
X105990000Y-79119999D01*
G75*
G02*
X106239999Y-78870000I249999J0D01*
G01*
X106765001Y-78870000D01*
G75*
G02*
X107015000Y-79119999I0J-249999D01*
G01*
X107015000Y-80020001D01*
G75*
G02*
X106765001Y-80270000I-249999J0D01*
G01*
X106239999Y-80270000D01*
G75*
G02*
X105990000Y-80020001I0J249999D01*
G01*
G37*
G36*
G01*
X104165000Y-80020001D02*
X104165000Y-79119999D01*
G75*
G02*
X104414999Y-78870000I249999J0D01*
G01*
X104940001Y-78870000D01*
G75*
G02*
X105190000Y-79119999I0J-249999D01*
G01*
X105190000Y-80020001D01*
G75*
G02*
X104940001Y-80270000I-249999J0D01*
G01*
X104414999Y-80270000D01*
G75*
G02*
X104165000Y-80020001I0J249999D01*
G01*
G37*
G36*
G01*
X101430000Y-89870001D02*
X101430000Y-88969999D01*
G75*
G02*
X101679999Y-88720000I249999J0D01*
G01*
X102205001Y-88720000D01*
G75*
G02*
X102455000Y-88969999I0J-249999D01*
G01*
X102455000Y-89870001D01*
G75*
G02*
X102205001Y-90120000I-249999J0D01*
G01*
X101679999Y-90120000D01*
G75*
G02*
X101430000Y-89870001I0J249999D01*
G01*
G37*
G36*
G01*
X99605000Y-89870001D02*
X99605000Y-88969999D01*
G75*
G02*
X99854999Y-88720000I249999J0D01*
G01*
X100380001Y-88720000D01*
G75*
G02*
X100630000Y-88969999I0J-249999D01*
G01*
X100630000Y-89870001D01*
G75*
G02*
X100380001Y-90120000I-249999J0D01*
G01*
X99854999Y-90120000D01*
G75*
G02*
X99605000Y-89870001I0J249999D01*
G01*
G37*
G36*
G01*
X105990000Y-78040001D02*
X105990000Y-77139999D01*
G75*
G02*
X106239999Y-76890000I249999J0D01*
G01*
X106765001Y-76890000D01*
G75*
G02*
X107015000Y-77139999I0J-249999D01*
G01*
X107015000Y-78040001D01*
G75*
G02*
X106765001Y-78290000I-249999J0D01*
G01*
X106239999Y-78290000D01*
G75*
G02*
X105990000Y-78040001I0J249999D01*
G01*
G37*
G36*
G01*
X104165000Y-78040001D02*
X104165000Y-77139999D01*
G75*
G02*
X104414999Y-76890000I249999J0D01*
G01*
X104940001Y-76890000D01*
G75*
G02*
X105190000Y-77139999I0J-249999D01*
G01*
X105190000Y-78040001D01*
G75*
G02*
X104940001Y-78290000I-249999J0D01*
G01*
X104414999Y-78290000D01*
G75*
G02*
X104165000Y-78040001I0J249999D01*
G01*
G37*
G36*
G01*
X97380000Y-80250001D02*
X97380000Y-79349999D01*
G75*
G02*
X97629999Y-79100000I249999J0D01*
G01*
X98155001Y-79100000D01*
G75*
G02*
X98405000Y-79349999I0J-249999D01*
G01*
X98405000Y-80250001D01*
G75*
G02*
X98155001Y-80500000I-249999J0D01*
G01*
X97629999Y-80500000D01*
G75*
G02*
X97380000Y-80250001I0J249999D01*
G01*
G37*
G36*
G01*
X95555000Y-80250001D02*
X95555000Y-79349999D01*
G75*
G02*
X95804999Y-79100000I249999J0D01*
G01*
X96330001Y-79100000D01*
G75*
G02*
X96580000Y-79349999I0J-249999D01*
G01*
X96580000Y-80250001D01*
G75*
G02*
X96330001Y-80500000I-249999J0D01*
G01*
X95804999Y-80500000D01*
G75*
G02*
X95555000Y-80250001I0J249999D01*
G01*
G37*
G36*
G01*
X101460000Y-87820001D02*
X101460000Y-86919999D01*
G75*
G02*
X101709999Y-86670000I249999J0D01*
G01*
X102235001Y-86670000D01*
G75*
G02*
X102485000Y-86919999I0J-249999D01*
G01*
X102485000Y-87820001D01*
G75*
G02*
X102235001Y-88070000I-249999J0D01*
G01*
X101709999Y-88070000D01*
G75*
G02*
X101460000Y-87820001I0J249999D01*
G01*
G37*
G36*
G01*
X99635000Y-87820001D02*
X99635000Y-86919999D01*
G75*
G02*
X99884999Y-86670000I249999J0D01*
G01*
X100410001Y-86670000D01*
G75*
G02*
X100660000Y-86919999I0J-249999D01*
G01*
X100660000Y-87820001D01*
G75*
G02*
X100410001Y-88070000I-249999J0D01*
G01*
X99884999Y-88070000D01*
G75*
G02*
X99635000Y-87820001I0J249999D01*
G01*
G37*
G36*
G01*
X116329999Y-60600000D02*
X117230001Y-60600000D01*
G75*
G02*
X117480000Y-60849999I0J-249999D01*
G01*
X117480000Y-61375001D01*
G75*
G02*
X117230001Y-61625000I-249999J0D01*
G01*
X116329999Y-61625000D01*
G75*
G02*
X116080000Y-61375001I0J249999D01*
G01*
X116080000Y-60849999D01*
G75*
G02*
X116329999Y-60600000I249999J0D01*
G01*
G37*
G36*
G01*
X116329999Y-58775000D02*
X117230001Y-58775000D01*
G75*
G02*
X117480000Y-59024999I0J-249999D01*
G01*
X117480000Y-59550001D01*
G75*
G02*
X117230001Y-59800000I-249999J0D01*
G01*
X116329999Y-59800000D01*
G75*
G02*
X116080000Y-59550001I0J249999D01*
G01*
X116080000Y-59024999D01*
G75*
G02*
X116329999Y-58775000I249999J0D01*
G01*
G37*
G36*
G01*
X102990000Y-84004999D02*
X102990000Y-84905001D01*
G75*
G02*
X102740001Y-85155000I-249999J0D01*
G01*
X102214999Y-85155000D01*
G75*
G02*
X101965000Y-84905001I0J249999D01*
G01*
X101965000Y-84004999D01*
G75*
G02*
X102214999Y-83755000I249999J0D01*
G01*
X102740001Y-83755000D01*
G75*
G02*
X102990000Y-84004999I0J-249999D01*
G01*
G37*
G36*
G01*
X104815000Y-84004999D02*
X104815000Y-84905001D01*
G75*
G02*
X104565001Y-85155000I-249999J0D01*
G01*
X104039999Y-85155000D01*
G75*
G02*
X103790000Y-84905001I0J249999D01*
G01*
X103790000Y-84004999D01*
G75*
G02*
X104039999Y-83755000I249999J0D01*
G01*
X104565001Y-83755000D01*
G75*
G02*
X104815000Y-84004999I0J-249999D01*
G01*
G37*
G36*
G01*
X119230001Y-59800000D02*
X118329999Y-59800000D01*
G75*
G02*
X118080000Y-59550001I0J249999D01*
G01*
X118080000Y-59024999D01*
G75*
G02*
X118329999Y-58775000I249999J0D01*
G01*
X119230001Y-58775000D01*
G75*
G02*
X119480000Y-59024999I0J-249999D01*
G01*
X119480000Y-59550001D01*
G75*
G02*
X119230001Y-59800000I-249999J0D01*
G01*
G37*
G36*
G01*
X119230001Y-61625000D02*
X118329999Y-61625000D01*
G75*
G02*
X118080000Y-61375001I0J249999D01*
G01*
X118080000Y-60849999D01*
G75*
G02*
X118329999Y-60600000I249999J0D01*
G01*
X119230001Y-60600000D01*
G75*
G02*
X119480000Y-60849999I0J-249999D01*
G01*
X119480000Y-61375001D01*
G75*
G02*
X119230001Y-61625000I-249999J0D01*
G01*
G37*
G36*
G01*
X101559999Y-101270000D02*
X102460001Y-101270000D01*
G75*
G02*
X102710000Y-101519999I0J-249999D01*
G01*
X102710000Y-102045001D01*
G75*
G02*
X102460001Y-102295000I-249999J0D01*
G01*
X101559999Y-102295000D01*
G75*
G02*
X101310000Y-102045001I0J249999D01*
G01*
X101310000Y-101519999D01*
G75*
G02*
X101559999Y-101270000I249999J0D01*
G01*
G37*
G36*
G01*
X101559999Y-99445000D02*
X102460001Y-99445000D01*
G75*
G02*
X102710000Y-99694999I0J-249999D01*
G01*
X102710000Y-100220001D01*
G75*
G02*
X102460001Y-100470000I-249999J0D01*
G01*
X101559999Y-100470000D01*
G75*
G02*
X101310000Y-100220001I0J249999D01*
G01*
X101310000Y-99694999D01*
G75*
G02*
X101559999Y-99445000I249999J0D01*
G01*
G37*
G36*
G01*
X103609999Y-101270000D02*
X104510001Y-101270000D01*
G75*
G02*
X104760000Y-101519999I0J-249999D01*
G01*
X104760000Y-102045001D01*
G75*
G02*
X104510001Y-102295000I-249999J0D01*
G01*
X103609999Y-102295000D01*
G75*
G02*
X103360000Y-102045001I0J249999D01*
G01*
X103360000Y-101519999D01*
G75*
G02*
X103609999Y-101270000I249999J0D01*
G01*
G37*
G36*
G01*
X103609999Y-99445000D02*
X104510001Y-99445000D01*
G75*
G02*
X104760000Y-99694999I0J-249999D01*
G01*
X104760000Y-100220001D01*
G75*
G02*
X104510001Y-100470000I-249999J0D01*
G01*
X103609999Y-100470000D01*
G75*
G02*
X103360000Y-100220001I0J249999D01*
G01*
X103360000Y-99694999D01*
G75*
G02*
X103609999Y-99445000I249999J0D01*
G01*
G37*
G36*
G01*
X114830000Y-87769999D02*
X114830000Y-88670001D01*
G75*
G02*
X114580001Y-88920000I-249999J0D01*
G01*
X114054999Y-88920000D01*
G75*
G02*
X113805000Y-88670001I0J249999D01*
G01*
X113805000Y-87769999D01*
G75*
G02*
X114054999Y-87520000I249999J0D01*
G01*
X114580001Y-87520000D01*
G75*
G02*
X114830000Y-87769999I0J-249999D01*
G01*
G37*
G36*
G01*
X116655000Y-87769999D02*
X116655000Y-88670001D01*
G75*
G02*
X116405001Y-88920000I-249999J0D01*
G01*
X115879999Y-88920000D01*
G75*
G02*
X115630000Y-88670001I0J249999D01*
G01*
X115630000Y-87769999D01*
G75*
G02*
X115879999Y-87520000I249999J0D01*
G01*
X116405001Y-87520000D01*
G75*
G02*
X116655000Y-87769999I0J-249999D01*
G01*
G37*
G36*
G01*
X105970000Y-73750001D02*
X105970000Y-72849999D01*
G75*
G02*
X106219999Y-72600000I249999J0D01*
G01*
X106745001Y-72600000D01*
G75*
G02*
X106995000Y-72849999I0J-249999D01*
G01*
X106995000Y-73750001D01*
G75*
G02*
X106745001Y-74000000I-249999J0D01*
G01*
X106219999Y-74000000D01*
G75*
G02*
X105970000Y-73750001I0J249999D01*
G01*
G37*
G36*
G01*
X104145000Y-73750001D02*
X104145000Y-72849999D01*
G75*
G02*
X104394999Y-72600000I249999J0D01*
G01*
X104920001Y-72600000D01*
G75*
G02*
X105170000Y-72849999I0J-249999D01*
G01*
X105170000Y-73750001D01*
G75*
G02*
X104920001Y-74000000I-249999J0D01*
G01*
X104394999Y-74000000D01*
G75*
G02*
X104145000Y-73750001I0J249999D01*
G01*
G37*
G36*
G01*
X113709999Y-83670000D02*
X114610001Y-83670000D01*
G75*
G02*
X114860000Y-83919999I0J-249999D01*
G01*
X114860000Y-84445001D01*
G75*
G02*
X114610001Y-84695000I-249999J0D01*
G01*
X113709999Y-84695000D01*
G75*
G02*
X113460000Y-84445001I0J249999D01*
G01*
X113460000Y-83919999D01*
G75*
G02*
X113709999Y-83670000I249999J0D01*
G01*
G37*
G36*
G01*
X113709999Y-81845000D02*
X114610001Y-81845000D01*
G75*
G02*
X114860000Y-82094999I0J-249999D01*
G01*
X114860000Y-82620001D01*
G75*
G02*
X114610001Y-82870000I-249999J0D01*
G01*
X113709999Y-82870000D01*
G75*
G02*
X113460000Y-82620001I0J249999D01*
G01*
X113460000Y-82094999D01*
G75*
G02*
X113709999Y-81845000I249999J0D01*
G01*
G37*
G36*
G01*
X109719999Y-83640000D02*
X110620001Y-83640000D01*
G75*
G02*
X110870000Y-83889999I0J-249999D01*
G01*
X110870000Y-84415001D01*
G75*
G02*
X110620001Y-84665000I-249999J0D01*
G01*
X109719999Y-84665000D01*
G75*
G02*
X109470000Y-84415001I0J249999D01*
G01*
X109470000Y-83889999D01*
G75*
G02*
X109719999Y-83640000I249999J0D01*
G01*
G37*
G36*
G01*
X109719999Y-81815000D02*
X110620001Y-81815000D01*
G75*
G02*
X110870000Y-82064999I0J-249999D01*
G01*
X110870000Y-82590001D01*
G75*
G02*
X110620001Y-82840000I-249999J0D01*
G01*
X109719999Y-82840000D01*
G75*
G02*
X109470000Y-82590001I0J249999D01*
G01*
X109470000Y-82064999D01*
G75*
G02*
X109719999Y-81815000I249999J0D01*
G01*
G37*
G36*
G01*
X105980000Y-75830001D02*
X105980000Y-74929999D01*
G75*
G02*
X106229999Y-74680000I249999J0D01*
G01*
X106755001Y-74680000D01*
G75*
G02*
X107005000Y-74929999I0J-249999D01*
G01*
X107005000Y-75830001D01*
G75*
G02*
X106755001Y-76080000I-249999J0D01*
G01*
X106229999Y-76080000D01*
G75*
G02*
X105980000Y-75830001I0J249999D01*
G01*
G37*
G36*
G01*
X104155000Y-75830001D02*
X104155000Y-74929999D01*
G75*
G02*
X104404999Y-74680000I249999J0D01*
G01*
X104930001Y-74680000D01*
G75*
G02*
X105180000Y-74929999I0J-249999D01*
G01*
X105180000Y-75830001D01*
G75*
G02*
X104930001Y-76080000I-249999J0D01*
G01*
X104404999Y-76080000D01*
G75*
G02*
X104155000Y-75830001I0J249999D01*
G01*
G37*
G36*
G01*
X113850001Y-66830000D02*
X112949999Y-66830000D01*
G75*
G02*
X112700000Y-66580001I0J249999D01*
G01*
X112700000Y-66054999D01*
G75*
G02*
X112949999Y-65805000I249999J0D01*
G01*
X113850001Y-65805000D01*
G75*
G02*
X114100000Y-66054999I0J-249999D01*
G01*
X114100000Y-66580001D01*
G75*
G02*
X113850001Y-66830000I-249999J0D01*
G01*
G37*
G36*
G01*
X113850001Y-68655000D02*
X112949999Y-68655000D01*
G75*
G02*
X112700000Y-68405001I0J249999D01*
G01*
X112700000Y-67879999D01*
G75*
G02*
X112949999Y-67630000I249999J0D01*
G01*
X113850001Y-67630000D01*
G75*
G02*
X114100000Y-67879999I0J-249999D01*
G01*
X114100000Y-68405001D01*
G75*
G02*
X113850001Y-68655000I-249999J0D01*
G01*
G37*
G36*
G01*
X101749999Y-92900000D02*
X102650001Y-92900000D01*
G75*
G02*
X102900000Y-93149999I0J-249999D01*
G01*
X102900000Y-93675001D01*
G75*
G02*
X102650001Y-93925000I-249999J0D01*
G01*
X101749999Y-93925000D01*
G75*
G02*
X101500000Y-93675001I0J249999D01*
G01*
X101500000Y-93149999D01*
G75*
G02*
X101749999Y-92900000I249999J0D01*
G01*
G37*
G36*
G01*
X101749999Y-91075000D02*
X102650001Y-91075000D01*
G75*
G02*
X102900000Y-91324999I0J-249999D01*
G01*
X102900000Y-91850001D01*
G75*
G02*
X102650001Y-92100000I-249999J0D01*
G01*
X101749999Y-92100000D01*
G75*
G02*
X101500000Y-91850001I0J249999D01*
G01*
X101500000Y-91324999D01*
G75*
G02*
X101749999Y-91075000I249999J0D01*
G01*
G37*
G36*
G01*
X93800000Y-80280001D02*
X93800000Y-79379999D01*
G75*
G02*
X94049999Y-79130000I249999J0D01*
G01*
X94575001Y-79130000D01*
G75*
G02*
X94825000Y-79379999I0J-249999D01*
G01*
X94825000Y-80280001D01*
G75*
G02*
X94575001Y-80530000I-249999J0D01*
G01*
X94049999Y-80530000D01*
G75*
G02*
X93800000Y-80280001I0J249999D01*
G01*
G37*
G36*
G01*
X91975000Y-80280001D02*
X91975000Y-79379999D01*
G75*
G02*
X92224999Y-79130000I249999J0D01*
G01*
X92750001Y-79130000D01*
G75*
G02*
X93000000Y-79379999I0J-249999D01*
G01*
X93000000Y-80280001D01*
G75*
G02*
X92750001Y-80530000I-249999J0D01*
G01*
X92224999Y-80530000D01*
G75*
G02*
X91975000Y-80280001I0J249999D01*
G01*
G37*
G36*
G01*
X97939999Y-76990000D02*
X98840001Y-76990000D01*
G75*
G02*
X99090000Y-77239999I0J-249999D01*
G01*
X99090000Y-77765001D01*
G75*
G02*
X98840001Y-78015000I-249999J0D01*
G01*
X97939999Y-78015000D01*
G75*
G02*
X97690000Y-77765001I0J249999D01*
G01*
X97690000Y-77239999D01*
G75*
G02*
X97939999Y-76990000I249999J0D01*
G01*
G37*
G36*
G01*
X97939999Y-75165000D02*
X98840001Y-75165000D01*
G75*
G02*
X99090000Y-75414999I0J-249999D01*
G01*
X99090000Y-75940001D01*
G75*
G02*
X98840001Y-76190000I-249999J0D01*
G01*
X97939999Y-76190000D01*
G75*
G02*
X97690000Y-75940001I0J249999D01*
G01*
X97690000Y-75414999D01*
G75*
G02*
X97939999Y-75165000I249999J0D01*
G01*
G37*
G36*
G01*
X101840000Y-71990001D02*
X101840000Y-71089999D01*
G75*
G02*
X102089999Y-70840000I249999J0D01*
G01*
X102615001Y-70840000D01*
G75*
G02*
X102865000Y-71089999I0J-249999D01*
G01*
X102865000Y-71990001D01*
G75*
G02*
X102615001Y-72240000I-249999J0D01*
G01*
X102089999Y-72240000D01*
G75*
G02*
X101840000Y-71990001I0J249999D01*
G01*
G37*
G36*
G01*
X100015000Y-71990001D02*
X100015000Y-71089999D01*
G75*
G02*
X100264999Y-70840000I249999J0D01*
G01*
X100790001Y-70840000D01*
G75*
G02*
X101040000Y-71089999I0J-249999D01*
G01*
X101040000Y-71990001D01*
G75*
G02*
X100790001Y-72240000I-249999J0D01*
G01*
X100264999Y-72240000D01*
G75*
G02*
X100015000Y-71990001I0J249999D01*
G01*
G37*
G36*
G01*
X96660000Y-62739999D02*
X96660000Y-63640001D01*
G75*
G02*
X96410001Y-63890000I-249999J0D01*
G01*
X95884999Y-63890000D01*
G75*
G02*
X95635000Y-63640001I0J249999D01*
G01*
X95635000Y-62739999D01*
G75*
G02*
X95884999Y-62490000I249999J0D01*
G01*
X96410001Y-62490000D01*
G75*
G02*
X96660000Y-62739999I0J-249999D01*
G01*
G37*
G36*
G01*
X98485000Y-62739999D02*
X98485000Y-63640001D01*
G75*
G02*
X98235001Y-63890000I-249999J0D01*
G01*
X97709999Y-63890000D01*
G75*
G02*
X97460000Y-63640001I0J249999D01*
G01*
X97460000Y-62739999D01*
G75*
G02*
X97709999Y-62490000I249999J0D01*
G01*
X98235001Y-62490000D01*
G75*
G02*
X98485000Y-62739999I0J-249999D01*
G01*
G37*
G36*
G01*
X91940000Y-62739999D02*
X91940000Y-63640001D01*
G75*
G02*
X91690001Y-63890000I-249999J0D01*
G01*
X91164999Y-63890000D01*
G75*
G02*
X90915000Y-63640001I0J249999D01*
G01*
X90915000Y-62739999D01*
G75*
G02*
X91164999Y-62490000I249999J0D01*
G01*
X91690001Y-62490000D01*
G75*
G02*
X91940000Y-62739999I0J-249999D01*
G01*
G37*
G36*
G01*
X93765000Y-62739999D02*
X93765000Y-63640001D01*
G75*
G02*
X93515001Y-63890000I-249999J0D01*
G01*
X92989999Y-63890000D01*
G75*
G02*
X92740000Y-63640001I0J249999D01*
G01*
X92740000Y-62739999D01*
G75*
G02*
X92989999Y-62490000I249999J0D01*
G01*
X93515001Y-62490000D01*
G75*
G02*
X93765000Y-62739999I0J-249999D01*
G01*
G37*
D13*
X117250000Y-82970000D03*
X118200000Y-80970000D03*
X116300000Y-80970000D03*
X119300000Y-84490000D03*
X118350000Y-86490000D03*
X120250000Y-86490000D03*
D14*
X108870000Y-79080000D03*
X110870000Y-80030000D03*
X110870000Y-78130000D03*
X101040000Y-78820000D03*
X103040000Y-79770000D03*
X103040000Y-77870000D03*
X100980000Y-74430000D03*
X102980000Y-75380000D03*
X102980000Y-73480000D03*
D15*
X98010000Y-97350000D03*
X95910000Y-97350000D03*
X97990000Y-95350000D03*
X95890000Y-95350000D03*
G36*
G01*
X124410000Y-72935000D02*
X124410000Y-71985000D01*
G75*
G02*
X124660000Y-71735000I250000J0D01*
G01*
X125160000Y-71735000D01*
G75*
G02*
X125410000Y-71985000I0J-250000D01*
G01*
X125410000Y-72935000D01*
G75*
G02*
X125160000Y-73185000I-250000J0D01*
G01*
X124660000Y-73185000D01*
G75*
G02*
X124410000Y-72935000I0J250000D01*
G01*
G37*
G36*
G01*
X122510000Y-72935000D02*
X122510000Y-71985000D01*
G75*
G02*
X122760000Y-71735000I250000J0D01*
G01*
X123260000Y-71735000D01*
G75*
G02*
X123510000Y-71985000I0J-250000D01*
G01*
X123510000Y-72935000D01*
G75*
G02*
X123260000Y-73185000I-250000J0D01*
G01*
X122760000Y-73185000D01*
G75*
G02*
X122510000Y-72935000I0J250000D01*
G01*
G37*
G36*
G01*
X92960000Y-77275000D02*
X92960000Y-78225000D01*
G75*
G02*
X92710000Y-78475000I-250000J0D01*
G01*
X92210000Y-78475000D01*
G75*
G02*
X91960000Y-78225000I0J250000D01*
G01*
X91960000Y-77275000D01*
G75*
G02*
X92210000Y-77025000I250000J0D01*
G01*
X92710000Y-77025000D01*
G75*
G02*
X92960000Y-77275000I0J-250000D01*
G01*
G37*
G36*
G01*
X94860000Y-77275000D02*
X94860000Y-78225000D01*
G75*
G02*
X94610000Y-78475000I-250000J0D01*
G01*
X94110000Y-78475000D01*
G75*
G02*
X93860000Y-78225000I0J250000D01*
G01*
X93860000Y-77275000D01*
G75*
G02*
X94110000Y-77025000I250000J0D01*
G01*
X94610000Y-77025000D01*
G75*
G02*
X94860000Y-77275000I0J-250000D01*
G01*
G37*
G36*
G01*
X93129999Y-96370000D02*
X94430001Y-96370000D01*
G75*
G02*
X94680000Y-96619999I0J-249999D01*
G01*
X94680000Y-97270001D01*
G75*
G02*
X94430001Y-97520000I-249999J0D01*
G01*
X93129999Y-97520000D01*
G75*
G02*
X92880000Y-97270001I0J249999D01*
G01*
X92880000Y-96619999D01*
G75*
G02*
X93129999Y-96370000I249999J0D01*
G01*
G37*
G36*
G01*
X93129999Y-93420000D02*
X94430001Y-93420000D01*
G75*
G02*
X94680000Y-93669999I0J-249999D01*
G01*
X94680000Y-94320001D01*
G75*
G02*
X94430001Y-94570000I-249999J0D01*
G01*
X93129999Y-94570000D01*
G75*
G02*
X92880000Y-94320001I0J249999D01*
G01*
X92880000Y-93669999D01*
G75*
G02*
X93129999Y-93420000I249999J0D01*
G01*
G37*
G36*
G01*
X90759999Y-96380000D02*
X92060001Y-96380000D01*
G75*
G02*
X92310000Y-96629999I0J-249999D01*
G01*
X92310000Y-97280001D01*
G75*
G02*
X92060001Y-97530000I-249999J0D01*
G01*
X90759999Y-97530000D01*
G75*
G02*
X90510000Y-97280001I0J249999D01*
G01*
X90510000Y-96629999D01*
G75*
G02*
X90759999Y-96380000I249999J0D01*
G01*
G37*
G36*
G01*
X90759999Y-93430000D02*
X92060001Y-93430000D01*
G75*
G02*
X92310000Y-93679999I0J-249999D01*
G01*
X92310000Y-94330001D01*
G75*
G02*
X92060001Y-94580000I-249999J0D01*
G01*
X90759999Y-94580000D01*
G75*
G02*
X90510000Y-94330001I0J249999D01*
G01*
X90510000Y-93679999D01*
G75*
G02*
X90759999Y-93430000I249999J0D01*
G01*
G37*
G36*
G01*
X97615000Y-92940000D02*
X98565000Y-92940000D01*
G75*
G02*
X98815000Y-93190000I0J-250000D01*
G01*
X98815000Y-93690000D01*
G75*
G02*
X98565000Y-93940000I-250000J0D01*
G01*
X97615000Y-93940000D01*
G75*
G02*
X97365000Y-93690000I0J250000D01*
G01*
X97365000Y-93190000D01*
G75*
G02*
X97615000Y-92940000I250000J0D01*
G01*
G37*
G36*
G01*
X97615000Y-91040000D02*
X98565000Y-91040000D01*
G75*
G02*
X98815000Y-91290000I0J-250000D01*
G01*
X98815000Y-91790000D01*
G75*
G02*
X98565000Y-92040000I-250000J0D01*
G01*
X97615000Y-92040000D01*
G75*
G02*
X97365000Y-91790000I0J250000D01*
G01*
X97365000Y-91290000D01*
G75*
G02*
X97615000Y-91040000I250000J0D01*
G01*
G37*
G36*
G01*
X99705000Y-92930000D02*
X100655000Y-92930000D01*
G75*
G02*
X100905000Y-93180000I0J-250000D01*
G01*
X100905000Y-93680000D01*
G75*
G02*
X100655000Y-93930000I-250000J0D01*
G01*
X99705000Y-93930000D01*
G75*
G02*
X99455000Y-93680000I0J250000D01*
G01*
X99455000Y-93180000D01*
G75*
G02*
X99705000Y-92930000I250000J0D01*
G01*
G37*
G36*
G01*
X99705000Y-91030000D02*
X100655000Y-91030000D01*
G75*
G02*
X100905000Y-91280000I0J-250000D01*
G01*
X100905000Y-91780000D01*
G75*
G02*
X100655000Y-92030000I-250000J0D01*
G01*
X99705000Y-92030000D01*
G75*
G02*
X99455000Y-91780000I0J250000D01*
G01*
X99455000Y-91280000D01*
G75*
G02*
X99705000Y-91030000I250000J0D01*
G01*
G37*
G36*
G01*
X103250000Y-67485000D02*
X103250000Y-66535000D01*
G75*
G02*
X103500000Y-66285000I250000J0D01*
G01*
X104000000Y-66285000D01*
G75*
G02*
X104250000Y-66535000I0J-250000D01*
G01*
X104250000Y-67485000D01*
G75*
G02*
X104000000Y-67735000I-250000J0D01*
G01*
X103500000Y-67735000D01*
G75*
G02*
X103250000Y-67485000I0J250000D01*
G01*
G37*
G36*
G01*
X101350000Y-67485000D02*
X101350000Y-66535000D01*
G75*
G02*
X101600000Y-66285000I250000J0D01*
G01*
X102100000Y-66285000D01*
G75*
G02*
X102350000Y-66535000I0J-250000D01*
G01*
X102350000Y-67485000D01*
G75*
G02*
X102100000Y-67735000I-250000J0D01*
G01*
X101600000Y-67735000D01*
G75*
G02*
X101350000Y-67485000I0J250000D01*
G01*
G37*
G36*
G01*
X103250000Y-65385000D02*
X103250000Y-64435000D01*
G75*
G02*
X103500000Y-64185000I250000J0D01*
G01*
X104000000Y-64185000D01*
G75*
G02*
X104250000Y-64435000I0J-250000D01*
G01*
X104250000Y-65385000D01*
G75*
G02*
X104000000Y-65635000I-250000J0D01*
G01*
X103500000Y-65635000D01*
G75*
G02*
X103250000Y-65385000I0J250000D01*
G01*
G37*
G36*
G01*
X101350000Y-65385000D02*
X101350000Y-64435000D01*
G75*
G02*
X101600000Y-64185000I250000J0D01*
G01*
X102100000Y-64185000D01*
G75*
G02*
X102350000Y-64435000I0J-250000D01*
G01*
X102350000Y-65385000D01*
G75*
G02*
X102100000Y-65635000I-250000J0D01*
G01*
X101600000Y-65635000D01*
G75*
G02*
X101350000Y-65385000I0J250000D01*
G01*
G37*
G36*
G01*
X91900000Y-81675000D02*
X91900000Y-82625000D01*
G75*
G02*
X91650000Y-82875000I-250000J0D01*
G01*
X91150000Y-82875000D01*
G75*
G02*
X90900000Y-82625000I0J250000D01*
G01*
X90900000Y-81675000D01*
G75*
G02*
X91150000Y-81425000I250000J0D01*
G01*
X91650000Y-81425000D01*
G75*
G02*
X91900000Y-81675000I0J-250000D01*
G01*
G37*
G36*
G01*
X93800000Y-81675000D02*
X93800000Y-82625000D01*
G75*
G02*
X93550000Y-82875000I-250000J0D01*
G01*
X93050000Y-82875000D01*
G75*
G02*
X92800000Y-82625000I0J250000D01*
G01*
X92800000Y-81675000D01*
G75*
G02*
X93050000Y-81425000I250000J0D01*
G01*
X93550000Y-81425000D01*
G75*
G02*
X93800000Y-81675000I0J-250000D01*
G01*
G37*
G36*
G01*
X97325000Y-82800001D02*
X97325000Y-81499999D01*
G75*
G02*
X97574999Y-81250000I249999J0D01*
G01*
X98225001Y-81250000D01*
G75*
G02*
X98475000Y-81499999I0J-249999D01*
G01*
X98475000Y-82800001D01*
G75*
G02*
X98225001Y-83050000I-249999J0D01*
G01*
X97574999Y-83050000D01*
G75*
G02*
X97325000Y-82800001I0J249999D01*
G01*
G37*
G36*
G01*
X94375000Y-82800001D02*
X94375000Y-81499999D01*
G75*
G02*
X94624999Y-81250000I249999J0D01*
G01*
X95275001Y-81250000D01*
G75*
G02*
X95525000Y-81499999I0J-249999D01*
G01*
X95525000Y-82800001D01*
G75*
G02*
X95275001Y-83050000I-249999J0D01*
G01*
X94624999Y-83050000D01*
G75*
G02*
X94375000Y-82800001I0J249999D01*
G01*
G37*
G36*
G01*
X91680000Y-91279999D02*
X91680000Y-92580001D01*
G75*
G02*
X91430001Y-92830000I-249999J0D01*
G01*
X90779999Y-92830000D01*
G75*
G02*
X90530000Y-92580001I0J249999D01*
G01*
X90530000Y-91279999D01*
G75*
G02*
X90779999Y-91030000I249999J0D01*
G01*
X91430001Y-91030000D01*
G75*
G02*
X91680000Y-91279999I0J-249999D01*
G01*
G37*
G36*
G01*
X94630000Y-91279999D02*
X94630000Y-92580001D01*
G75*
G02*
X94380001Y-92830000I-249999J0D01*
G01*
X93729999Y-92830000D01*
G75*
G02*
X93480000Y-92580001I0J249999D01*
G01*
X93480000Y-91279999D01*
G75*
G02*
X93729999Y-91030000I249999J0D01*
G01*
X94380001Y-91030000D01*
G75*
G02*
X94630000Y-91279999I0J-249999D01*
G01*
G37*
G36*
G01*
X95535000Y-92930000D02*
X96485000Y-92930000D01*
G75*
G02*
X96735000Y-93180000I0J-250000D01*
G01*
X96735000Y-93680000D01*
G75*
G02*
X96485000Y-93930000I-250000J0D01*
G01*
X95535000Y-93930000D01*
G75*
G02*
X95285000Y-93680000I0J250000D01*
G01*
X95285000Y-93180000D01*
G75*
G02*
X95535000Y-92930000I250000J0D01*
G01*
G37*
G36*
G01*
X95535000Y-91030000D02*
X96485000Y-91030000D01*
G75*
G02*
X96735000Y-91280000I0J-250000D01*
G01*
X96735000Y-91780000D01*
G75*
G02*
X96485000Y-92030000I-250000J0D01*
G01*
X95535000Y-92030000D01*
G75*
G02*
X95285000Y-91780000I0J250000D01*
G01*
X95285000Y-91280000D01*
G75*
G02*
X95535000Y-91030000I250000J0D01*
G01*
G37*
G36*
G01*
X108095000Y-73660000D02*
X109045000Y-73660000D01*
G75*
G02*
X109295000Y-73910000I0J-250000D01*
G01*
X109295000Y-74410000D01*
G75*
G02*
X109045000Y-74660000I-250000J0D01*
G01*
X108095000Y-74660000D01*
G75*
G02*
X107845000Y-74410000I0J250000D01*
G01*
X107845000Y-73910000D01*
G75*
G02*
X108095000Y-73660000I250000J0D01*
G01*
G37*
G36*
G01*
X108095000Y-71760000D02*
X109045000Y-71760000D01*
G75*
G02*
X109295000Y-72010000I0J-250000D01*
G01*
X109295000Y-72510000D01*
G75*
G02*
X109045000Y-72760000I-250000J0D01*
G01*
X108095000Y-72760000D01*
G75*
G02*
X107845000Y-72510000I0J250000D01*
G01*
X107845000Y-72010000D01*
G75*
G02*
X108095000Y-71760000I250000J0D01*
G01*
G37*
M02*
