M48
; DRILL file {KiCad (5.1.7)-1} date 12/20/20 16:41:21
; FORMAT={-:-/ absolute / inch / decimal}
; #@! TF.CreationDate,2020-12-20T16:41:21+01:00
; #@! TF.GenerationSoftware,Kicad,Pcbnew,(5.1.7)-1
; #@! TF.FileFunction,Plated,1,2,PTH
FMAT,2
INCH
T1C0.0157
T2C0.0236
T3C0.0394
%
G90
G05
T1
X3.5827Y-3.061
X3.5846Y-3.3035
X3.5898Y-3.8988
X3.5953Y-2.9181
X3.6118Y-2.4098
X3.6453Y-3.5776
X3.6862Y-2.7693
X3.7272Y-2.5016
X3.7287Y-3.4992
X3.7335Y-3.3976
X3.7465Y-3.5504
X3.75Y-2.9713
X3.7594Y-3.3346
X3.7822Y-3.0828
X3.798Y-3.8941
X3.8091Y-2.372
X3.8835Y-3.0961
X3.9075Y-3.2484
X3.9205Y-2.5291
X3.9528Y-3.7756
X3.9543Y-3.2878
X3.976Y-3.3512
X3.978Y-3.1472
X3.9917Y-3.0028
X3.9961Y-2.7004
X4.0059Y-2.2736
X4.0161Y-4.065
X4.0969Y-4.0689
X4.1012Y-2.8142
X4.1154Y-2.2457
X4.1339Y-2.6476
X4.1496Y-2.511
X4.1799Y-3.2736
X4.1992Y-3.5205
X4.226Y-3.663
X4.235Y-3.8945
X4.2913Y-3.6327
X4.3051Y-3.3693
X4.3138Y-3.7752
X4.3248Y-3.1972
X4.3274Y-3.5093
X4.3685Y-3.1976
X4.4287Y-3.3827
X4.4433Y-2.3264
X4.4461Y-2.5413
X4.4543Y-3.1626
X4.4823Y-3.9026
X4.4925Y-3.0327
X4.498Y-3.4055
X4.5173Y-2.8598
X4.5366Y-3.1732
X4.537Y-3.902
X4.5969Y-3.0
X4.6051Y-3.0791
X4.6138Y-2.8346
X4.626Y-2.5528
X4.6358Y-3.5039
X4.6386Y-2.2224
X4.665Y-3.7657
X4.6819Y-2.6839
X4.6846Y-2.7791
X4.713Y-3.9429
X4.7343Y-2.9874
X4.7772Y-2.3843
X4.8071Y-2.998
X4.8465Y-2.7957
X4.8622Y-3.1744
X4.9213Y-2.7854
X4.9311Y-3.1862
X4.9319Y-2.6106
X4.937Y-3.5248
X4.9409Y-2.7264
T3
X4.8144Y-3.25
X4.8144Y-3.35
X4.8144Y-3.45
X4.9144Y-3.25
X4.9144Y-3.35
X4.9144Y-3.45
X4.05Y-3.225
X4.15Y-3.225
X4.25Y-3.225
X4.275Y-2.4
X4.275Y-2.5
X4.275Y-2.6
X4.275Y-2.7
X4.375Y-2.4
X4.375Y-2.5
X4.375Y-2.6
X4.375Y-2.7
X3.675Y-2.85
X3.775Y-2.85
X3.875Y-2.85
X3.625Y-2.6
X3.625Y-2.7
X3.725Y-2.6
X3.725Y-2.7
X3.825Y-2.6
X3.825Y-2.7
X3.925Y-2.6
X3.925Y-2.7
X4.275Y-3.0
X4.375Y-3.0
X4.5144Y-3.6
X4.5144Y-3.7
X4.6144Y-3.6
X4.6144Y-3.7
X4.7144Y-3.6
X4.7144Y-3.7
X4.8144Y-3.6
X4.8144Y-3.7
X4.9144Y-3.6
X4.9144Y-3.7
T2
G00X4.3378Y-3.8325
M15
G01X4.3378Y-3.8758
M16
G05
G00X4.3378Y-4.0069
M15
G01X4.3378Y-4.0305
M16
G05
G00X4.678Y-3.8325
M15
G01X4.678Y-3.8758
M16
G05
G00X4.678Y-4.0069
M15
G01X4.678Y-4.0305
M16
G05
T0
M30
